<?xml version="1.0" encoding="UTF-8"?>
<svg version="1.1" xmlns="http://www.w3.org/2000/svg" width="1310" height="854">
<path d="M0 0 C432.3 0 864.6 0 1310 0 C1310 281.82 1310 563.64 1310 854 C877.7 854 445.4 854 0 854 C0 572.18 0 290.36 0 0 Z " fill="#2C2C2C" transform="translate(0,0)"/>
<path d="M0 0 C1.04453339 -0.01007584 1.04453339 -0.01007584 2.11016846 -0.02035522 C4.42491729 -0.0394268 6.73937654 -0.04326658 9.05419922 -0.04541016 C10.67211016 -0.05184115 12.29001994 -0.05856973 13.90792847 -0.06558228 C17.31266971 -0.07758443 20.7173094 -0.08126103 24.12207031 -0.08007812 C28.44105821 -0.0798769 32.75937335 -0.10695838 37.0782032 -0.14162254 C40.42958421 -0.16412263 43.78081064 -0.16790839 47.13225937 -0.16685867 C48.72114208 -0.16918858 50.31003082 -0.17786108 51.89883804 -0.19352341 C71.4570671 -0.36796931 89.75817461 3.59311654 104.36279297 17.28662109 C115.62927256 28.93791403 118.6173366 43.29928368 118.53466797 58.94604492 C118.17303371 73.41625874 113.05137397 84.30487631 102.62451172 94.30615234 C99.10060466 97.23122552 95.33385339 99.29684403 91.23388672 101.29052734 C91.56694824 101.89171387 91.90000977 102.49290039 92.24316406 103.11230469 C96.53606255 110.91691833 100.65189337 118.80693029 104.72998047 126.72509766 C105.86131153 128.92023224 106.99673306 131.1132192 108.13232422 133.30615234 C110.1901809 137.28898806 112.22374835 141.28340341 114.23388672 145.29052734 C114.71180664 146.24282227 115.18972656 147.19511719 115.68212891 148.17626953 C118.32514429 153.72319881 118.32514429 153.72319881 117.88476562 156.4609375 C117.23388672 158.29052734 117.23388672 158.29052734 116.23388672 159.29052734 C113.31194477 159.42889494 110.41535066 159.50370707 107.49169922 159.52880859 C106.61238739 159.53688034 105.73307556 159.54495209 104.82711792 159.55326843 C102.96256492 159.56712502 101.09798639 159.5778401 99.23339844 159.58569336 C96.37760518 159.60291447 93.52296686 159.64678638 90.66748047 159.69091797 C88.85889526 159.70104367 87.05030018 159.70956016 85.24169922 159.71630859 C83.95720383 159.74257072 83.95720383 159.74257072 82.64675903 159.7693634 C76.78315615 159.74784987 76.78315615 159.74784987 74.39916992 157.76293945 C74.01462646 156.94704346 73.63008301 156.13114746 73.23388672 155.29052734 C72.96110901 154.73005203 72.6883313 154.16957672 72.4072876 153.59211731 C71.4196492 151.51485363 70.49735698 149.41603243 69.58154297 147.30615234 C69.24013779 146.53172791 68.8987326 145.75730347 68.54698181 144.95941162 C67.45857663 142.48855863 66.37711134 140.01474817 65.29638672 137.54052734 C64.21814643 135.08108613 63.13839844 132.62232544 62.0565033 130.16448975 C61.38515458 128.63839111 60.71602907 127.11131169 60.04957581 125.58306885 C58.16433208 121.28689227 56.15597064 117.09154077 53.97581482 112.9364624 C53.23388672 111.29052734 53.23388672 111.29052734 53.23388672 109.29052734 C45.64388672 109.29052734 38.05388672 109.29052734 30.23388672 109.29052734 C30.24548828 112.81611328 30.25708984 116.34169922 30.26904297 119.97412109 C30.27683235 123.37296458 30.28290979 126.77180709 30.28881836 130.1706543 C30.29386013 132.54045046 30.30069337 134.91024349 30.30932617 137.2800293 C30.32139862 140.67806773 30.32711643 144.0760652 30.33154297 147.47412109 C30.33670425 148.54077499 30.34186554 149.60742889 30.34718323 150.70640564 C30.34725876 151.68734695 30.34733429 152.66828827 30.34741211 153.67895508 C30.34963272 154.5472142 30.35185333 155.41547333 30.35414124 156.31004333 C30.23388672 158.29052734 30.23388672 158.29052734 29.23388672 159.29052734 C26.59102398 159.4038936 23.97527216 159.45470495 21.33154297 159.45849609 C20.53864365 159.46182449 19.74574432 159.46515289 18.92881775 159.46858215 C17.24836814 159.47365461 15.56790843 159.47599038 13.88745117 159.47583008 C11.31070413 159.4780152 8.73438596 159.49616343 6.15771484 159.51513672 C4.52815902 159.5180708 2.89860116 159.5200555 1.26904297 159.52099609 C0.10804832 159.53177437 0.10804832 159.53177437 -1.07640076 159.54277039 C-6.53729076 159.51934987 -6.53729076 159.51934987 -8.76611328 157.29052734 C-9.01779556 154.62932587 -9.01779556 154.62932587 -9.02008057 151.17907715 C-9.02572021 149.87502426 -9.03135986 148.57097137 -9.03717041 147.22740173 C-9.03328143 145.77383368 -9.02918507 144.32026617 -9.02490234 142.86669922 C-9.02761109 141.34257337 -9.03117136 139.81844883 -9.03552246 138.29432678 C-9.04466264 134.14771648 -9.04109554 130.00120538 -9.03476429 125.85459328 C-9.0297127 121.52199657 -9.03439339 117.18940855 -9.03753662 112.85681152 C-9.04117873 105.57998118 -9.03637077 98.30319138 -9.02685547 91.02636719 C-9.01597044 82.60461219 -9.01949585 74.18295403 -9.03050828 65.76120138 C-9.03957421 58.53994971 -9.04086984 51.31872724 -9.03563094 44.09747171 C-9.03250741 39.78037331 -9.03211237 35.46332048 -9.03870392 31.14622498 C-9.04446668 27.08823027 -9.04050023 23.03036081 -9.02891541 18.97237968 C-9.02626307 17.47999213 -9.02704364 15.98759409 -9.03144073 14.49521065 C-9.03687481 12.46413668 -9.02886432 10.43303978 -9.02008057 8.40197754 C-9.01932652 7.26339546 -9.01857246 6.12481339 -9.01779556 4.95172882 C-8.4812012 -0.72203461 -4.79029117 0.02893985 0 0 Z " fill="#EBEEEF" transform="translate(934.76611328125,396.70947265625)"/>
<path d="M0 0 C1.02749359 -0.01007584 1.02749359 -0.01007584 2.07574463 -0.02035522 C4.35322252 -0.03942891 6.63040602 -0.04326693 8.90795898 -0.04541016 C10.50105406 -0.05184191 12.09414797 -0.05857055 13.6872406 -0.06558228 C17.04070764 -0.07758557 20.39407158 -0.08126101 23.74755859 -0.08007812 C27.99695087 -0.0798771 32.24565784 -0.10693676 36.49488926 -0.14162254 C39.79569879 -0.16415032 43.09635171 -0.16790755 46.39723015 -0.16685867 C47.96016695 -0.16918532 49.5231101 -0.17783839 51.08596992 -0.19352341 C71.50020023 -0.37886403 89.7534831 3.75483668 105.05639648 17.87255859 C114.59497583 27.86656082 118.74470351 41.54392135 118.65405273 55.04052734 C118.64841309 55.92015137 118.64277344 56.79977539 118.63696289 57.70605469 C118.38871721 71.0695377 114.83388334 81.68204137 105.59155273 91.54052734 C101.31820504 95.61511468 96.48581225 98.45356617 91.34155273 101.29052734 C91.68114014 101.90476562 92.02072754 102.51900391 92.37060547 103.15185547 C96.47981169 110.63035093 100.44176623 118.17880223 104.35546875 125.76074219 C105.40331089 127.78909133 106.45536318 129.81522008 107.50756836 131.84130859 C109.47775006 135.64501401 111.42089468 139.46158813 113.34155273 143.29052734 C113.88408691 144.37205078 114.42662109 145.45357422 114.9855957 146.56787109 C115.45239746 147.53853516 115.91919922 148.50919922 116.40014648 149.50927734 C116.80418701 150.34394531 117.20822754 151.17861328 117.62451172 152.03857422 C118.44016532 154.60023196 118.30325904 155.81021091 117.34155273 158.29052734 C115.22285346 160.40922662 110.5308255 159.50364003 107.59936523 159.52880859 C106.72005341 159.53688034 105.84074158 159.54495209 104.93478394 159.55326843 C103.07023094 159.56712502 101.2056524 159.5778401 99.34106445 159.58569336 C96.4852712 159.60291447 93.63063288 159.64678638 90.77514648 159.69091797 C88.96656128 159.70104367 87.1579662 159.70956016 85.34936523 159.71630859 C84.06486984 159.74257072 84.06486984 159.74257072 82.75442505 159.7693634 C76.89082216 159.74784987 76.89082216 159.74784987 74.50683594 157.76293945 C74.12229248 156.94704346 73.73774902 156.13114746 73.34155273 155.29052734 C73.06877502 154.73005203 72.79599731 154.16957672 72.51495361 153.59211731 C71.52731522 151.51485363 70.60502299 149.41603243 69.68920898 147.30615234 C69.3478038 146.53172791 69.00639862 145.75730347 68.65464783 144.95941162 C67.56624265 142.48855863 66.48477736 140.01474817 65.40405273 137.54052734 C64.32581245 135.08108613 63.24606446 132.62232544 62.16416931 130.16448975 C61.49282059 128.63839111 60.82369509 127.11131169 60.15724182 125.58306885 C58.2719981 121.28689227 56.26363666 117.09154077 54.08348083 112.9364624 C53.34155273 111.29052734 53.34155273 111.29052734 53.34155273 109.29052734 C45.75155273 109.29052734 38.16155273 109.29052734 30.34155273 109.29052734 C30.36475586 112.73232422 30.38795898 116.17412109 30.41186523 119.72021484 C30.42744971 123.042965 30.43960132 126.36571112 30.45141602 129.68847656 C30.46149165 132.00294814 30.47515248 134.31740693 30.49243164 136.63183594 C30.51661138 139.95299427 30.52802004 143.27398475 30.53686523 146.59521484 C30.54718781 147.63483368 30.55751038 148.67445251 30.56814575 149.74557495 C30.56837234 151.1868425 30.56837234 151.1868425 30.56860352 152.65722656 C30.57304474 153.50550018 30.57748596 154.3537738 30.58206177 155.22775269 C30.34155273 157.29052734 30.34155273 157.29052734 28.34155273 159.29052734 C25.71215078 159.49018107 23.1903511 159.57036844 20.56030273 159.55615234 C19.7910144 159.5580658 19.02172607 159.55997925 18.22912598 159.56195068 C16.60172194 159.56331242 14.97430703 159.55961673 13.34692383 159.55126953 C10.85139643 159.54056955 8.35658891 159.55116486 5.86108398 159.56396484 C4.28165531 159.56264325 2.70222708 159.56008085 1.12280273 159.55615234 C0.37381714 159.56020081 -0.37516846 159.56424927 -1.14685059 159.56842041 C-6.42852483 159.52044977 -6.42852483 159.52044977 -8.65844727 157.29052734 C-8.91012955 154.62932587 -8.91012955 154.62932587 -8.91241455 151.17907715 C-8.9180542 149.87502426 -8.92369385 148.57097137 -8.92950439 147.22740173 C-8.92561542 145.77383368 -8.92151905 144.32026617 -8.91723633 142.86669922 C-8.91994507 141.34257337 -8.92350535 139.81844883 -8.92785645 138.29432678 C-8.93699662 134.14771648 -8.93342952 130.00120538 -8.92709827 125.85459328 C-8.92204668 121.52199657 -8.92672738 117.18940855 -8.92987061 112.85681152 C-8.93351271 105.57998118 -8.92870476 98.30319138 -8.91918945 91.02636719 C-8.90830443 82.60461219 -8.91182983 74.18295403 -8.92284226 65.76120138 C-8.93190819 58.53994971 -8.93320383 51.31872724 -8.92796493 44.09747171 C-8.92484139 39.78037331 -8.92444635 35.46332048 -8.9310379 31.14622498 C-8.93680067 27.08823027 -8.93283421 23.03036081 -8.92124939 18.97237968 C-8.91859705 17.47999213 -8.91937763 15.98759409 -8.92377472 14.49521065 C-8.9292088 12.46413668 -8.9211983 10.43303978 -8.91241455 8.40197754 C-8.9116605 7.26339546 -8.91090645 6.12481339 -8.91012955 4.95172882 C-8.37740287 -0.68113897 -4.76570938 0.02927342 0 0 Z " fill="#EBEEEF" transform="translate(267.658447265625,396.70947265625)"/>
<path d="M0 0 C68.64 0 137.28 0 208 0 C208 19.8 208 39.6 208 60 C199.585 60.495 199.585 60.495 191 61 C191.99 62.65 192.98 64.3 194 66 C193.7730075 70.31285749 191.88533103 74.1568252 190 78 C185.99298306 80.67134463 182.71123704 80.82653281 178 80 C174.71824682 77.47031526 173.30756223 75.92268669 172 72 C171.34 71.67 170.68 71.34 170 71 C170.43731081 65.31495945 170.73173127 64.26826873 175 60 C171.04 59.67 167.08 59.34 163 59 C163 59.66 163 60.32 163 61 C163.9590625 61.2784375 163.9590625 61.2784375 164.9375 61.5625 C167 63 167 63 168 66.125 C168 70.8907011 166.74290867 74.12608679 164 78 C159.9876467 80.6749022 156.71620266 80.81769538 152 80 C148.9375 77.75 148.9375 77.75 147 75 C147 73.68 147 72.36 147 71 C146.01 71 145.02 71 144 71 C144.61538462 64.47692308 144.61538462 64.47692308 146.5625 62.0625 C147.036875 61.711875 147.51125 61.36125 148 61 C145.03 60.505 145.03 60.505 142 60 C142 60.99 142 61.98 142 63 C115.6 63 89.2 63 62 63 C62 65.64 62 68.28 62 71 C88.4 71 114.8 71 142 71 C142 71.99 142 72.98 142 74 C114.61 74 87.22 74 59 74 C59 69.05 59 64.1 59 59 C57.35 59 55.7 59 54 59 C54 63.95 54 68.9 54 74 C53.34 74 52.68 74 52 74 C51.938125 72.783125 51.87625 71.56625 51.8125 70.3125 C51.28684155 65.81254505 49.41107948 63.97376159 46 61 C46 60.34 46 59.68 46 59 C40.92918782 58.63923075 37.12397641 58.4380118 32.5 60.75 C29.48619411 63.42362752 29.48619411 63.42362752 28 67 C28 69.31 28 71.62 28 74 C16.45 74 4.9 74 -7 74 C-7.99 69.05 -7.99 69.05 -9 64 C-12.12487264 60.36642716 -13.81691586 59.1660469 -18.5625 58.5 C-23.44349825 59.20996338 -26.85645031 61.21723269 -30 65 C-30.57323807 67.27161255 -30.57323807 67.27161255 -30.6875 69.6875 C-30.75324219 70.49574219 -30.81898438 71.30398438 -30.88671875 72.13671875 C-30.92410156 72.75160156 -30.96148438 73.36648438 -31 74 C-34.62856907 73.32804276 -37.22944315 72.48526117 -40 70 C-40.79727308 66.32128083 -40.69969022 62.66140098 -40.6640625 58.91015625 C-40.66884613 57.81408554 -40.67362976 56.71801483 -40.67855835 55.58872986 C-40.68196256 53.2695065 -40.67272396 50.95023549 -40.65185547 48.63110352 C-40.62512531 45.07915184 -40.65157511 41.53036797 -40.68359375 37.97851562 C-40.68028924 35.72655551 -40.67388218 33.47459738 -40.6640625 31.22265625 C-40.67418365 30.15902359 -40.68430481 29.09539093 -40.69473267 27.99952698 C-40.57859463 20.6966711 -40.57859463 20.6966711 -37.87890625 17.44604492 C-34.71108034 15.85487863 -31.66713166 14.67383399 -28.2734375 13.640625 C-27.64394196 13.44652039 -27.01444641 13.25241577 -26.36587524 13.0524292 C-25.04467626 12.6473536 -23.72182776 12.24762273 -22.39746094 11.85302734 C-20.37049415 11.24865651 -18.34916955 10.62776408 -16.328125 10.00390625 C-6.47478008 7 -6.47478008 7 -3 7 C-3 24.16 -3 41.32 -3 59 C-2.01 59 -1.02 59 0 59 C0 39.53 0 20.06 0 0 Z " fill="#BCC1C5" transform="translate(574,210)"/>
<path d="M0 0 C0.68981461 -0.00511093 1.37962921 -0.01022186 2.09034729 -0.01548767 C4.38225897 -0.02943765 6.67387106 -0.02842044 8.96582031 -0.02612305 C10.5661022 -0.03001205 12.16638306 -0.03434715 13.7666626 -0.03910828 C17.13272428 -0.04658569 20.49868118 -0.04627192 23.86474609 -0.04101562 C28.14122705 -0.03527241 32.41726761 -0.05201812 36.69367599 -0.0753603 C40.00722695 -0.09024174 43.32067599 -0.09094908 46.63425446 -0.08785057 C48.20802927 -0.08835837 49.78181064 -0.09349238 51.35555267 -0.10366249 C71.19188265 -0.21594191 89.55842656 3.29105199 104.41113281 17.2668457 C115.63975964 28.83444994 118.71425027 43.12347569 118.65966797 58.66650391 C118.43264925 69.94142006 115.44913966 79.47343323 108.29394531 88.2746582 C107.76542969 88.95012695 107.23691406 89.6255957 106.69238281 90.3215332 C95.37775715 103.18132801 75.75801749 108.20634979 59.29394531 109.2746582 C54.43875552 109.38580239 49.58755919 109.3694495 44.73144531 109.3371582 C42.78915039 109.33039063 42.78915039 109.33039063 40.80761719 109.32348633 C37.63634432 109.31178421 34.46516985 109.29538933 31.29394531 109.2746582 C31.30060715 109.85681595 31.30726898 110.43897369 31.31413269 111.03877258 C31.38042222 117.08926886 31.42571924 123.13966225 31.45874023 129.19042969 C31.47384134 131.44958688 31.49432373 133.7087147 31.52026367 135.96777344 C31.55658839 139.21206913 31.5736584 142.45597776 31.58691406 145.70043945 C31.60239792 146.71302322 31.61788177 147.72560699 31.63383484 148.76887512 C31.63406143 149.70962387 31.63428802 150.65037262 31.63452148 151.61962891 C31.64118332 152.44791702 31.64784515 153.27620514 31.65470886 154.1295929 C31.20317422 156.81437439 30.48165145 157.68768996 28.29394531 159.2746582 C25.58870978 159.56065364 23.11855868 159.6714134 20.41503906 159.63793945 C19.26322899 159.63868721 19.26322899 159.63868721 18.08815002 159.63945007 C16.46669931 159.63711154 14.84524483 159.6273959 13.22387695 159.61083984 C10.73713888 159.5872123 8.25147048 159.59028443 5.76464844 159.59692383 C4.18977223 159.59134814 2.61490055 159.58423895 1.04003906 159.57543945 C0.29419052 159.57635086 -0.45165802 159.57726227 -1.22010803 159.57820129 C-6.47501178 159.50570111 -6.47501178 159.50570111 -8.70605469 157.2746582 C-8.95773697 154.61345673 -8.95773697 154.61345673 -8.96002197 151.16320801 C-8.96566162 149.85915512 -8.97130127 148.55510223 -8.97711182 147.21153259 C-8.97322284 145.75796454 -8.96912648 144.30439703 -8.96484375 142.85083008 C-8.96755249 141.32670423 -8.97111277 139.80257969 -8.97546387 138.27845764 C-8.98460405 134.13184734 -8.98103694 129.98533624 -8.9747057 125.83872414 C-8.9696541 121.50612743 -8.9743348 117.17353941 -8.97747803 112.84094238 C-8.98112013 105.56411204 -8.97631218 98.28732224 -8.96679688 91.01049805 C-8.95591185 82.58874305 -8.95943726 74.16708489 -8.97044969 65.74533224 C-8.97951561 58.52408057 -8.98081125 51.3028581 -8.97557235 44.08160257 C-8.97244881 39.76450417 -8.97205378 35.44745134 -8.97864532 31.13035583 C-8.98440809 27.07236113 -8.98044163 23.01449167 -8.96885681 18.95651054 C-8.96620447 17.46412298 -8.96698505 15.97172495 -8.97138214 14.47934151 C-8.97681622 12.44826754 -8.96880572 10.41717064 -8.96002197 8.3861084 C-8.95926792 7.24752632 -8.95851387 6.10894424 -8.95773697 4.93585968 C-8.42292365 -0.71907159 -4.77745593 0.01760691 0 0 Z " fill="#EBEEEF" transform="translate(563.7060546875,396.725341796875)"/>
<path d="M0 0 C1.76061615 -0.02158374 3.52112489 -0.05569163 5.28125 -0.10253906 C7.81697587 -0.16945041 10.35047949 -0.19698205 12.88696289 -0.21606445 C13.67251053 -0.24389511 14.45805817 -0.27172577 15.26741028 -0.30039978 C17.50146484 -0.29199219 17.50146484 -0.29199219 21.33618164 0.4050293 C25.14873172 4.52393424 26.84027374 9.79508672 28.74243164 15.0065918 C29.05932953 15.85451797 29.37622742 16.70244415 29.70272827 17.57606506 C30.3910993 19.42004281 31.07606153 21.26529589 31.75799561 23.11166382 C33.63537578 28.19323723 35.53876747 33.26509002 37.43774414 38.33862305 C37.83639679 39.40589127 38.23504944 40.47315948 38.64578247 41.57276917 C42.68052905 52.36158463 46.8151969 63.11110463 50.96304321 73.85684204 C52.21235757 77.09557779 53.45874746 80.33542315 54.70410156 83.57568359 C58.61427887 93.74856183 62.53265584 103.91799372 66.48077393 114.07621765 C68.28096158 118.71508788 70.07079811 123.35790759 71.85845947 128.00161743 C72.71304019 130.21447575 73.57215533 132.42558869 74.43597412 134.63485718 C75.62920641 137.68800801 76.80669662 140.74679182 77.98071289 143.80737305 C78.3379393 144.7100592 78.69516571 145.61274536 79.06321716 146.54278564 C81.97910562 154.22941568 81.97910562 154.22941568 80.33618164 158.4050293 C77.4805518 161.26065914 67.23704958 159.72801597 63.19018555 159.75512695 C61.37430006 159.77169703 59.55848008 159.79900111 57.74291992 159.8371582 C55.13043248 159.89181275 52.51947558 159.91378165 49.90649414 159.9284668 C49.09391144 159.95113617 48.28132874 159.97380554 47.44412231 159.99716187 C45.14916992 159.98852539 45.14916992 159.98852539 41.33618164 159.4050293 C39.41455078 157.12866211 39.41455078 157.12866211 38.33618164 154.4050293 C38.01174072 153.71844238 37.6872998 153.03185547 37.35302734 152.32446289 C36.44607671 150.14514871 35.54172211 147.96508865 34.64868164 145.7800293 C34.32834961 145.0169043 34.00801758 144.2537793 33.67797852 143.4675293 C33.37569336 142.73276367 33.0734082 141.99799805 32.76196289 141.2409668 C32.35071167 140.24395752 32.35071167 140.24395752 31.93115234 139.22680664 C31.33618164 137.4050293 31.33618164 137.4050293 31.33618164 134.4050293 C2.62618164 134.9000293 2.62618164 134.9000293 -26.66381836 135.4050293 C-29.63381836 142.6650293 -32.60381836 149.9250293 -35.66381836 157.4050293 C-38.23814336 159.97935429 -39.97094482 159.65278676 -43.48034668 159.68292236 C-44.27307983 159.6788739 -45.06581299 159.67482544 -45.88256836 159.6706543 C-46.69624878 159.67256775 -47.5099292 159.6744812 -48.3482666 159.67645264 C-50.06982736 159.67781457 -51.79139839 159.67411757 -53.51293945 159.66577148 C-56.15331006 159.65507188 -58.79300025 159.6656663 -61.43334961 159.6784668 C-63.10392403 159.6771452 -64.77449803 159.67458281 -66.44506836 159.6706543 C-67.63416809 159.67672699 -67.63416809 159.67672699 -68.84729004 159.68292236 C-74.43389809 159.63494957 -74.43389809 159.63494957 -76.66381836 157.4050293 C-76.34675007 151.85767543 -74.03828385 146.88287974 -71.97241211 141.7956543 C-71.59584976 140.85357117 -71.21928741 139.91148804 -70.83131409 138.94085693 C-70.01824532 136.90758896 -69.20263818 134.87533457 -68.38476562 132.84399414 C-66.19205787 127.39580151 -64.01965846 121.9395309 -61.84741211 116.4831543 C-61.40585785 115.37484253 -60.96430359 114.26653076 -60.5093689 113.12463379 C-56.45446507 102.92445346 -52.54106315 92.67376892 -48.66381836 82.4050293 C-42.73592257 66.72612229 -36.65047041 51.11360337 -30.47631836 35.5300293 C-30.06986084 34.50329102 -29.66340332 33.47655273 -29.24462891 32.41870117 C-16.46326771 0.15194029 -16.46326771 0.15194029 0 0 Z " fill="#EBEEEF" transform="translate(756.663818359375,396.594970703125)"/>
<path d="M0 0 C1.43860886 -0.00845947 1.43860886 -0.00845947 2.90628052 -0.01708984 C3.96193207 -0.01304138 5.01758362 -0.00899292 6.10522461 -0.00482178 C7.21421112 -0.00832642 8.32319763 -0.01183105 9.46578979 -0.01544189 C13.14644557 -0.02427366 16.82691049 -0.01840488 20.50756836 -0.01165771 C23.0558272 -0.01300395 25.60408579 -0.01494413 28.15234375 -0.01745605 C33.49896928 -0.02040928 38.84552586 -0.01629289 44.19213867 -0.0067749 C50.37811107 0.00410996 56.56395164 0.00058448 62.74992085 -0.01042771 C68.69477248 -0.02058807 74.63958306 -0.01952435 80.58444214 -0.01366425 C83.11709613 -0.01232626 85.64975347 -0.01398064 88.18240356 -0.01862335 C91.71666488 -0.0236797 95.25066997 -0.01599075 98.78491211 -0.00482178 C99.84056366 -0.00887024 100.89621521 -0.0129187 101.9838562 -0.01708984 C102.94292877 -0.0114502 103.90200134 -0.00581055 104.89013672 0 C105.7263707 0.00075405 106.56260468 0.0015081 107.42417908 0.002285 C109.44506836 0.25396729 109.44506836 0.25396729 111.44506836 2.25396729 C111.70385742 5.29498291 111.70385742 5.29498291 111.71069336 9.16021729 C111.71260681 9.84072144 111.71452026 10.52122559 111.7164917 11.22235107 C111.71785299 12.66144175 111.71416041 14.10054472 111.70581055 15.53961182 C111.69510964 17.74545816 111.70570708 19.9504901 111.71850586 22.15631104 C111.71718425 23.55344825 111.71462184 24.95058496 111.71069336 26.34771729 C111.7084375 27.62324463 111.70618164 28.89877197 111.70385742 30.21295166 C111.44506836 33.25396729 111.44506836 33.25396729 109.44506836 35.25396729 C106.97557764 35.44169994 104.61926853 35.50593032 102.1496582 35.48101807 C101.39834122 35.48131012 100.64702423 35.48160217 99.87294006 35.48190308 C97.38384544 35.48050716 94.89504833 35.46493386 92.40600586 35.44927979 C90.68250695 35.44555058 88.95900593 35.44270317 87.23550415 35.44070435 C82.69476489 35.43306058 78.15415316 35.41340577 73.61346436 35.39129639 C68.98182908 35.37085392 64.35017323 35.36170606 59.71850586 35.35162354 C50.62729492 35.33016051 41.53621219 35.29497237 32.44506836 35.25396729 C32.44506836 44.16396729 32.44506836 53.07396729 32.44506836 62.25396729 C36.0428418 62.24236572 39.64061523 62.23076416 43.34741211 62.21881104 C46.81575431 62.21102171 50.28409555 62.20494424 53.75244141 62.19903564 C56.17074008 62.1939938 58.58903569 62.1871605 61.00732422 62.17852783 C64.47486119 62.16645572 67.94235802 62.16073765 71.40991211 62.15631104 C72.49843979 62.15114975 73.58696747 62.14598846 74.70848083 62.14067078 C76.20992393 62.14055748 76.20992393 62.14055748 77.74169922 62.14044189 C79.07073524 62.13711098 79.07073524 62.13711098 80.42662048 62.13371277 C82.44506836 62.25396729 82.44506836 62.25396729 83.44506836 63.25396729 C83.54584956 65.61795197 83.58480051 67.9520804 83.57788086 70.31646729 C83.57883759 71.0229541 83.57979431 71.72944092 83.58078003 72.45733643 C83.58146169 73.95367522 83.57960841 75.45001696 83.57543945 76.9463501 C83.57009093 79.24426886 83.57538487 81.54199215 83.58178711 83.83990479 C83.58112633 85.29042605 83.57984516 86.7409472 83.57788086 88.19146729 C83.57990509 88.88312988 83.58192932 89.57479248 83.58401489 90.28741455 C83.5600206 95.13901505 83.5600206 95.13901505 82.44506836 96.25396729 C80.87959788 96.34723444 79.30994063 96.37142311 77.74169922 96.36749268 C76.74073715 96.36741714 75.73977509 96.36734161 74.70848083 96.36726379 C73.61995316 96.36210251 72.53142548 96.35694122 71.40991211 96.35162354 C70.30152481 96.35020859 69.19313751 96.34879364 68.05116272 96.34733582 C64.49493767 96.34171762 60.93877453 96.32916203 57.38256836 96.31646729 C54.97827239 96.31145463 52.57397544 96.30689132 50.16967773 96.30279541 C44.2614313 96.29259118 38.3533195 96.27301933 32.44506836 96.25396729 C32.44506836 105.49396729 32.44506836 114.73396729 32.44506836 124.25396729 C34.77239014 124.24873047 37.09971191 124.24349365 39.49755859 124.23809814 C47.1690065 124.22156186 54.84045518 124.21049591 62.51191616 124.20215511 C67.16518022 124.19692643 71.8184261 124.18982906 76.47167969 124.17852783 C80.95851382 124.16769842 85.4453304 124.16169034 89.93217659 124.15909004 C91.64787129 124.15723589 93.36356497 124.15361546 95.07925224 124.14823723 C97.47391749 124.14102607 99.86850932 124.13997637 102.26318359 124.14044189 C102.97959518 124.13684662 103.69600677 124.13325134 104.43412781 124.12954712 C109.3310162 124.13991512 109.3310162 124.13991512 110.44506836 125.25396729 C110.53350629 127.70227155 110.56035588 130.12217327 110.54272461 132.57037354 C110.54130966 133.30142807 110.53989471 134.0324826 110.53843689 134.78569031 C110.53282244 137.12932361 110.52026758 139.47286268 110.50756836 141.81646729 C110.50255522 143.40175237 110.49799199 144.98703894 110.49389648 146.57232666 C110.48284833 150.46624338 110.46557408 154.36008934 110.44506836 158.25396729 C108.0561868 159.44840806 106.59471159 159.37973796 103.92810059 159.38095093 C102.97744217 159.38377075 102.02678375 159.38659058 101.0473175 159.38949585 C100.00101669 159.38747162 98.95471588 159.38544739 97.87670898 159.38336182 C96.22785957 159.3859903 96.22785957 159.3859903 94.54570007 159.38867188 C90.89755696 159.39308761 87.249462 159.39015336 83.60131836 159.38677979 C81.07548005 159.3874529 78.5496418 159.388423 76.02380371 159.38967896 C70.72427699 159.39115555 65.42476766 159.38909741 60.12524414 159.38433838 C53.99383697 159.37889598 47.86246305 159.38065872 41.73105669 159.38616478 C35.83853916 159.39124502 29.94603198 159.39071307 24.05351257 159.38778305 C21.54318741 159.38711407 19.03286141 159.38794121 16.52253723 159.3902626 C13.01947758 159.39279078 9.51648255 159.38894614 6.01342773 159.38336182 C4.44397652 159.38639816 4.44397652 159.38639816 2.84281921 159.38949585 C1.41683159 159.38526611 1.41683159 159.38526611 -0.03796387 159.38095093 C-0.8668235 159.3805739 -1.69568314 159.38019688 -2.54965973 159.37980843 C-4.55493164 159.25396729 -4.55493164 159.25396729 -6.55493164 158.25396729 C-6.60160014 137.948645 -6.63689516 117.64333357 -6.65855598 97.33796883 C-6.66887966 87.91037328 -6.68296079 78.48281101 -6.70581055 69.05523682 C-6.72571108 60.84058609 -6.73864013 52.62595945 -6.74310863 44.41128528 C-6.74572169 40.05949032 -6.75188602 35.70776429 -6.76639175 31.35599136 C-6.77992303 27.26357106 -6.78416336 23.17124838 -6.781147 19.07880783 C-6.78169917 17.573514 -6.78570309 16.06821705 -6.79334259 14.5629425 C-6.80323367 12.51426529 -6.79972281 10.46553621 -6.79544067 8.4168396 C-6.79728426 7.26828554 -6.79912785 6.11973148 -6.8010273 4.93637276 C-6.36839354 0.22073017 -4.19455709 0.00378233 0 0 Z " fill="#ECEFF0" transform="translate(418.554931640625,395.74603271484375)"/>
<path d="M0 0 C1.15628906 0.00607269 1.15628906 0.00607269 2.3359375 0.01226807 C3.12742187 0.01035461 3.91890625 0.00844116 4.734375 0.00646973 C6.4088574 0.00510789 8.08335035 0.00880425 9.7578125 0.01715088 C12.32576131 0.02785067 14.89301053 0.01725582 17.4609375 0.00445557 C19.08593905 0.00577716 20.71094016 0.00833956 22.3359375 0.01226807 C23.10679687 0.0082196 23.87765625 0.00417114 24.671875 0 C30.10601618 0.04797174 30.10601618 0.04797174 32.3359375 2.27789307 C32.58761978 4.93909454 32.58761978 4.93909454 32.58990479 8.38934326 C32.59554443 9.69339615 32.60118408 10.99744904 32.60699463 12.34101868 C32.60310565 13.79458673 32.59900929 15.24815424 32.59472656 16.70172119 C32.59743531 18.22584704 32.60099558 19.74997158 32.60534668 21.27409363 C32.61448686 25.42070393 32.61091975 29.56721503 32.60458851 33.71382713 C32.59953692 38.04642384 32.60421761 42.37901186 32.60736084 46.71160889 C32.61100295 53.98843923 32.60619499 61.26522903 32.59667969 68.54205322 C32.58579466 76.96380822 32.58932007 85.38546638 32.6003325 93.80721903 C32.60939842 101.0284707 32.61069406 108.24969317 32.60545516 115.4709487 C32.60233162 119.7880471 32.60193659 124.10509993 32.60852814 128.42219543 C32.6142909 132.48019014 32.61032444 136.5380596 32.59873962 140.59604073 C32.59608729 142.08842829 32.59686786 143.58082632 32.60126495 145.07320976 C32.60669903 147.10428373 32.59868854 149.13538063 32.58990479 151.16644287 C32.58915073 152.30502495 32.58839668 153.44360703 32.58761978 154.61669159 C32.3359375 157.27789307 32.3359375 157.27789307 30.3359375 159.27789307 C27.63458427 159.4776304 25.03796539 159.5577088 22.3359375 159.54351807 C21.54445313 159.54543152 20.75296875 159.54734497 19.9375 159.54931641 C18.2630176 159.55067824 16.58852465 159.54698188 14.9140625 159.53863525 C12.34611369 159.52793547 9.77886447 159.53853032 7.2109375 159.55133057 C5.58593595 159.55000897 3.96093484 159.54744658 2.3359375 159.54351807 C1.17964844 159.54959076 1.17964844 159.54959076 0 159.55578613 C-5.43414118 159.50781439 -5.43414118 159.50781439 -7.6640625 157.27789307 C-7.91574478 154.61669159 -7.91574478 154.61669159 -7.91802979 151.16644287 C-7.92366943 149.86238998 -7.92930908 148.5583371 -7.93511963 147.21476746 C-7.93123065 145.7611994 -7.92713429 144.30763189 -7.92285156 142.85406494 C-7.92556031 141.32993909 -7.92912058 139.80581455 -7.93347168 138.2816925 C-7.94261186 134.1350822 -7.93904475 129.9885711 -7.93271351 125.841959 C-7.92766192 121.50936229 -7.93234261 117.17677427 -7.93548584 112.84417725 C-7.93912795 105.5673469 -7.93431999 98.2905571 -7.92480469 91.01373291 C-7.91391966 82.59197792 -7.91744507 74.17031975 -7.9284575 65.7485671 C-7.93752342 58.52731543 -7.93881906 51.30609296 -7.93358016 44.08483744 C-7.93045662 39.76773904 -7.93006159 35.4506862 -7.93665314 31.1335907 C-7.9424159 27.07559599 -7.93844944 23.01772653 -7.92686462 18.95974541 C-7.92421229 17.46735785 -7.92499286 15.97495981 -7.92938995 14.48257637 C-7.93482403 12.45150241 -7.92681354 10.4204055 -7.91802979 8.38934326 C-7.91727573 7.25076118 -7.91652168 6.11217911 -7.91574478 4.93909454 C-7.42342503 -0.26652442 -4.5569012 0.04022761 0 0 Z " fill="#EAEDEE" transform="translate(868.6640625,396.72210693359375)"/>
<path d="M0 0 C4.25004671 -0.07485856 8.49973134 -0.12893167 12.75024414 -0.16479492 C14.19236955 -0.17976508 15.63445036 -0.20014868 17.07641602 -0.22631836 C36.92291133 -0.57715762 36.92291133 -0.57715762 44.4375 6.4375 C45.07558594 7.01371094 45.71367188 7.58992188 46.37109375 8.18359375 C50.28861826 12.55205634 50.42691433 16.47629145 50.3203125 22.171875 C49.73725504 27.31984576 47.77475576 31.28249442 44.0625 34.875 C37.51026648 38.44894556 31.2878571 39.12596458 23.88671875 39.1328125 C23.23169876 39.13376923 22.57667877 39.13472595 21.90180969 39.13571167 C20.52950951 39.13638767 19.15720602 39.13457414 17.78491211 39.13037109 C15.67619787 39.12497106 13.56769245 39.13035764 11.45898438 39.13671875 C10.12239536 39.13605871 8.78580648 39.13477909 7.44921875 39.1328125 C6.23580811 39.13168457 5.02239746 39.13055664 3.7722168 39.12939453 C1 39 1 39 0 38 C-0.08861992 35.1883662 -0.11522355 32.40141745 -0.09765625 29.58984375 C-0.0962413 28.74780899 -0.09482635 27.90577423 -0.09336853 27.03822327 C-0.08775263 24.33794665 -0.07519748 21.63775172 -0.0625 18.9375 C-0.05748705 17.11132932 -0.05292379 15.28515734 -0.04882812 13.45898438 C-0.03777804 8.97262458 -0.02050279 4.48632616 0 0 Z " fill="#2F2F2F" transform="translate(594,432)"/>
<path d="M0 0 C4.25004671 -0.07485856 8.49973134 -0.12893167 12.75024414 -0.16479492 C14.19236955 -0.17976508 15.63445036 -0.20014868 17.07641602 -0.22631836 C28.58723006 -0.42980242 37.7081725 -0.06000304 46.40234375 8.25390625 C50.29134526 12.50423308 50.43662254 16.86342145 50.3203125 22.4296875 C49.69938031 27.41228968 47.65762366 31.39584807 44.0625 34.875 C37.51026648 38.44894556 31.2878571 39.12596458 23.88671875 39.1328125 C23.23169876 39.13376923 22.57667877 39.13472595 21.90180969 39.13571167 C20.52950951 39.13638767 19.15720602 39.13457414 17.78491211 39.13037109 C15.67619787 39.12497106 13.56769245 39.13035764 11.45898438 39.13671875 C10.12239536 39.13605871 8.78580648 39.13477909 7.44921875 39.1328125 C6.23580811 39.13168457 5.02239746 39.13055664 3.7722168 39.12939453 C1 39 1 39 0 38 C-0.08861992 35.1883662 -0.11522355 32.40141745 -0.09765625 29.58984375 C-0.0962413 28.74780899 -0.09482635 27.90577423 -0.09336853 27.03822327 C-0.08775263 24.33794665 -0.07519748 21.63775172 -0.0625 18.9375 C-0.05748705 17.11132932 -0.05292379 15.28515734 -0.04882812 13.45898438 C-0.03777804 8.97262458 -0.02050279 4.48632616 0 0 Z " fill="#393939" transform="translate(965,432)"/>
<path d="M0 0 C4.599375 -0.04125 9.19875 -0.0825 13.9375 -0.125 C15.36956787 -0.14320801 16.80163574 -0.16141602 18.27709961 -0.18017578 C27.73388131 -0.2210714 36.3539647 -0.25584706 44 6 C49.01019247 11.17312556 50.35760538 15.2800597 50.28515625 22.359375 C49.74271581 27.38252205 47.67650016 31.37758049 44.0625 34.875 C37.41522292 38.5007875 31.13977253 39.12867675 23.6328125 39.09765625 C22.38902832 39.09515869 21.14524414 39.09266113 19.86376953 39.09008789 C17.51807861 39.07643188 17.51807861 39.07643188 15.125 39.0625 C7.638125 39.0315625 7.638125 39.0315625 0 39 C0 26.13 0 13.26 0 0 Z " fill="#252526" transform="translate(298,432)"/>
<path d="M0 0 C5.80831622 1.95023756 9.28207407 5.99362963 12.25 11.1875 C13.6990328 16.62137301 13.68561164 21.90283499 11.9375 27.25 C8.82443568 31.66854291 5.17827004 35.27390999 0 37 C-7.39109695 37.65914754 -13.12666067 37.79456272 -19 33 C-23.23725219 28.60060805 -24.35360605 24.49542453 -24.5625 18.4375 C-24.31151206 12.73082683 -23.65777497 9.40808778 -20 5 C-17.72326367 3.35202827 -15.55666944 2.23098899 -13 1 C-9.04474536 -0.97762732 -4.31019688 -0.42863836 0 0 Z " fill="#E6E9EA" transform="translate(666,335)"/>
<path d="M0 0 C4.41854291 3.11306432 8.02390999 6.75922996 9.75 11.9375 C10.41143086 19.3542001 10.46197415 24.98553266 5.75 30.9375 C-0.96773324 36.14717068 -6.94773748 36.74023532 -15.25 35.9375 C-18.75 34.1875 -18.75 34.1875 -21.25 31.9375 C-21.9925 31.298125 -22.735 30.65875 -23.5 30 C-27.47743067 25.31231385 -27.63890753 20.50000091 -27.48828125 14.5859375 C-27.07793896 10.02508384 -25.81498073 7.31989964 -22.375 4.28125 C-15.41228473 -1.14557219 -8.5970803 -2.81058394 0 0 Z " fill="#E6E9EA" transform="translate(497.25,336.0625)"/>
<path d="M0 0 C3.3 0 6.6 0 10 0 C13.3850895 6.51943164 16.23345343 13.19701662 19 20 C22.3850895 13.48056836 25.23345343 6.80298338 28 0 C29.47906892 -0.02689216 30.95827483 -0.04634621 32.4375 -0.0625 C33.26121094 -0.07410156 34.08492188 -0.08570313 34.93359375 -0.09765625 C37 0 37 0 38 1 C38.08851529 3.59359322 38.11525945 6.16039691 38.09765625 8.75390625 C38.0962413 9.52935287 38.09482635 10.3047995 38.09336853 11.10374451 C38.08775345 13.59003494 38.07519846 16.0762366 38.0625 18.5625 C38.05748694 20.24413933 38.0529237 21.92578006 38.04882812 23.60742188 C38.03777913 27.73831566 38.02050445 31.86914276 38 36 C35.03 36 32.06 36 29 36 C28.67 31.38 28.34 26.76 28 22 C26.02 26.29 24.04 30.58 22 35 C20.02 35 18.04 35 16 35 C15.18563132 33.23002526 14.3735706 31.45898848 13.5625 29.6875 C13.11003906 28.70136719 12.65757812 27.71523438 12.19140625 26.69921875 C11 24 11 24 10 21 C9.67 25.95 9.34 30.9 9 36 C6.03 36 3.06 36 0 36 C0 24.12 0 12.24 0 0 Z " fill="#E3E6E7" transform="translate(427,336)"/>
<path d="M0 0 C2.26638296 2.26638296 2.76591171 3.77130892 3.78759766 6.78515625 C4.29790024 8.27680298 4.29790024 8.27680298 4.81851196 9.79858398 C5.18004364 10.87567627 5.54157532 11.95276855 5.9140625 13.0625 C6.28856537 14.164729 6.66306824 15.26695801 7.04891968 16.40258789 C7.84010528 18.73521595 8.62840833 21.0688234 9.4140625 23.40332031 C10.62075268 26.98738477 11.83696241 30.56810918 13.0546875 34.1484375 C13.82087727 36.41126718 14.58652083 38.6742819 15.3515625 40.9375 C15.71714264 42.01459229 16.08272278 43.09168457 16.4593811 44.20141602 C16.7932785 45.19584717 17.1271759 46.19027832 17.47119141 47.21484375 C17.76716217 48.09261475 18.06313293 48.97038574 18.36807251 49.87475586 C19 52 19 52 19 54 C7.12 54 -4.76 54 -17 54 C-16.34598881 49.42192165 -15.85936732 46.07957905 -14.41772461 41.89086914 C-14.09746811 40.95042252 -13.77721161 40.00997589 -13.44725037 39.04103088 C-13.10243118 38.04909225 -12.757612 37.05715363 -12.40234375 36.03515625 C-12.04862198 35.00184677 -11.69490021 33.96853729 -11.33045959 32.90391541 C-10.20530206 29.62140768 -9.07153759 26.3419491 -7.9375 23.0625 C-7.17065297 20.8302742 -6.40437067 18.59785431 -5.63867188 16.36523438 C-3.76564873 10.90789158 -1.88556029 5.45302293 0 0 Z " fill="#363636" transform="translate(758,445)"/>
<path d="M0 0 C3.39554235 -0.11660824 6.79056679 -0.18738372 10.1875 -0.25 C11.14720703 -0.28351563 12.10691406 -0.31703125 13.09570312 -0.3515625 C20.25784723 -0.45069252 20.25784723 -0.45069252 24.11328125 1.890625 C26.64652322 4.72282099 27.15337927 6.28766508 27.1875 10 C27.20167969 10.70125 27.21585938 11.4025 27.23046875 12.125 C27 14 27 14 25 16 C25.639375 16.78375 26.27875 17.5675 26.9375 18.375 C30.13042265 22.43871973 30.52903519 24.79782067 30 30 C27.22725256 33.89917609 24.37390275 35.7627728 19.6640625 36.7265625 C13.47799589 37.36149602 7.20551736 37.31429593 1 37 C0 36 0 36 -0.11352539 32.58178711 C-0.11336628 31.06363012 -0.10767226 29.54546771 -0.09765625 28.02734375 C-0.0962413 27.22970108 -0.09482635 26.43205841 -0.09336853 25.61024475 C-0.08775316 23.05262565 -0.07519812 20.49509282 -0.0625 17.9375 C-0.05748698 16.20768355 -0.05292373 14.47786574 -0.04882812 12.74804688 C-0.03777875 8.49866447 -0.02050386 4.24934688 0 0 Z " fill="#E4E7E8" transform="translate(513,336)"/>
<path d="M0 0 C3.34125 -0.0825 6.6825 -0.165 10.125 -0.25 C11.16672363 -0.28641602 12.20844727 -0.32283203 13.28173828 -0.36035156 C19.00616089 -0.42861742 22.58209407 -0.03680862 27 4 C29.896726 8.18136101 29.79170616 13.11140665 29 18 C27.58042494 20.51269731 26.12158749 21.98449188 24 24 C24.3609375 24.69867188 24.721875 25.39734375 25.09375 26.1171875 C25.5578125 27.02726562 26.021875 27.93734375 26.5 28.875 C26.9640625 29.77992188 27.428125 30.68484375 27.90625 31.6171875 C29 34 29 34 29 36 C25.7 36 22.4 36 19 36 C18.69707031 35.28972656 18.39414062 34.57945312 18.08203125 33.84765625 C17.66308594 32.92855469 17.24414062 32.00945312 16.8125 31.0625 C16.20341797 29.68771484 16.20341797 29.68771484 15.58203125 28.28515625 C13.9704933 25.39211675 13.9704933 25.39211675 9 25 C9 28.96 9 32.92 9 37 C6.03 37 3.06 37 0 37 C0 24.79 0 12.58 0 0 Z " fill="#E9ECED" transform="translate(912,336)"/>
<path d="M0 0 C3.320625 -0.12375 6.64125 -0.2475 10.0625 -0.375 C11.09511963 -0.42962402 12.12773926 -0.48424805 13.19165039 -0.54052734 C18.14164011 -0.62933781 21.25008104 -0.35626012 25.12109375 2.8984375 C28.1422064 5.868559 29.18522717 7.94680719 29.375 12.1875 C29.35779475 17.50392134 27.3829296 20.02505772 24 24 C24.3609375 24.69867188 24.721875 25.39734375 25.09375 26.1171875 C25.5578125 27.02726562 26.021875 27.93734375 26.5 28.875 C26.9640625 29.77992188 27.428125 30.68484375 27.90625 31.6171875 C29 34 29 34 29 36 C25.7 36 22.4 36 19 36 C15 27.25 15 27.25 15 25 C13.02 25 11.04 25 9 25 C9.01160156 25.78246094 9.02320313 26.56492187 9.03515625 27.37109375 C9.04417969 28.38300781 9.05320312 29.39492188 9.0625 30.4375 C9.07410156 31.44683594 9.08570313 32.45617187 9.09765625 33.49609375 C9 36 9 36 8 37 C5.36 37 2.72 37 0 37 C0 24.79 0 12.58 0 0 Z " fill="#E8EBEC" transform="translate(339,336)"/>
<path d="M0 0 C9 0 9 0 10.90795898 1.42114258 C11.26704346 2.07236084 11.62612793 2.7235791 11.99609375 3.39453125 C12.40923828 4.10287109 12.82238281 4.81121094 13.24804688 5.54101562 C13.64056641 6.29060547 14.03308594 7.04019531 14.4375 7.8125 C14.85708984 8.55048828 15.27667969 9.28847656 15.70898438 10.04882812 C16.48744298 11.42075277 17.25208288 12.80068213 17.99780273 14.19067383 C18.91349679 15.84383062 19.95171599 17.42757398 21 19 C21.33 12.73 21.66 6.46 22 0 C24.97 0 27.94 0 31 0 C31 11.88 31 23.76 31 36 C22 36 22 36 19.51171875 33.83984375 C18.90972656 32.88207031 18.30773437 31.92429687 17.6875 30.9375 C17.07261719 29.99777344 16.45773437 29.05804688 15.82421875 28.08984375 C13.84990639 24.74577292 11.92670106 21.37172686 10 18 C9.67 24.27 9.34 30.54 9 37 C6.03 37 3.06 37 0 37 C0 24.79 0 12.58 0 0 Z " fill="#E5E7E8" transform="translate(685,336)"/>
<path d="M0 0 C2.97 0 5.94 0 9 0 C9.33 3.3 9.66 6.6 10 10 C10.52207031 9.278125 11.04414062 8.55625 11.58203125 7.8125 C17.52237746 0.32204594 17.52237746 0.32204594 22.046875 -0.6640625 C24.761393 -0.62890035 27.32447305 -0.45008865 30 0 C28.26104645 3.99347625 25.7575083 6.2547067 22.55859375 9.12109375 C20.60998342 11.47017037 20.29466635 12.97396038 20 16 C20.84445977 18.24117163 20.84445977 18.24117163 22.30859375 20.3203125 C22.80810547 21.10277344 23.30761719 21.88523437 23.82226562 22.69140625 C24.62180664 23.89603516 24.62180664 23.89603516 25.4375 25.125 C26.4836581 26.72800474 27.52429584 28.33462978 28.55859375 29.9453125 C29.02579834 30.65187988 29.49300293 31.35844727 29.97436523 32.08642578 C31 34 31 34 31 37 C27.33579802 38.03270828 24.62404913 38.26816657 21 37 C17.28516001 33.0579118 12 25.45762997 12 20 C11.34 20.33 10.68 20.66 10 21 C9.68758545 23.71446979 9.48663408 26.33909361 9.375 29.0625 C9.31699219 30.20041992 9.31699219 30.20041992 9.2578125 31.36132812 C9.16326438 33.24047195 9.08053244 35.12020336 9 37 C6.03 37 3.06 37 0 37 C0 24.79 0 12.58 0 0 Z " fill="#E4E7E8" transform="translate(1022,336)"/>
<path d="M0 0 C1.91015625 1.10546875 1.91015625 1.10546875 4.72265625 3.10546875 C4.72265625 7.10546875 4.72265625 7.10546875 2.72265625 9.35546875 C2.06265625 9.93296875 1.40265625 10.51046875 0.72265625 11.10546875 C-0.10234375 10.58984375 -0.92734375 10.07421875 -1.77734375 9.54296875 C-6.03055422 7.79611445 -8.92991838 7.62863635 -13.27734375 9.10546875 C-16.04280666 10.95802356 -16.04280666 10.95802356 -17.27734375 14.10546875 C-17.36617839 18.32511434 -16.60719889 22.11590333 -15.27734375 26.10546875 C-12.26243818 27.11043727 -10.23552683 27.20882178 -7.08984375 27.16796875 C-6.18878906 27.15894531 -5.28773438 27.14992188 -4.359375 27.140625 C-3.32876953 27.12322266 -3.32876953 27.12322266 -2.27734375 27.10546875 C-2.27734375 26.11546875 -2.27734375 25.12546875 -2.27734375 24.10546875 C-3.92734375 24.10546875 -5.57734375 24.10546875 -7.27734375 24.10546875 C-7.27734375 21.46546875 -7.27734375 18.82546875 -7.27734375 16.10546875 C-2.98734375 16.10546875 1.30265625 16.10546875 5.72265625 16.10546875 C5.72265625 21.38546875 5.72265625 26.66546875 5.72265625 32.10546875 C-1.09920748 36.38585383 -7.27954249 37.40348893 -15.27734375 36.10546875 C-20.69920644 33.75856452 -24.35191275 29.71999959 -26.64453125 24.30859375 C-28.08769175 19.2842572 -28.55925407 14.58411262 -26.1015625 9.83203125 C-19.8147324 1.09220026 -10.86252238 -4.26675407 0 0 Z " fill="#E8EBEC" transform="translate(286.27734375,335.89453125)"/>
<path d="M0 0 C1.23556641 0.01740234 1.23556641 0.01740234 2.49609375 0.03515625 C3.32238281 0.04417969 4.14867187 0.05320312 5 0.0625 C5.63808594 0.07410156 6.27617187 0.08570313 6.93359375 0.09765625 C8.78923977 4.90153202 10.6405405 9.70705052 12.48779297 14.51416016 C13.11712705 16.15003889 13.74765666 17.78545821 14.37939453 19.42041016 C15.28600995 21.7673628 16.1883459 24.11592143 17.08984375 26.46484375 C17.37420288 27.19822968 17.65856201 27.9316156 17.95153809 28.68722534 C19.93359375 33.86991284 19.93359375 33.86991284 19.93359375 36.09765625 C16.63359375 36.09765625 13.33359375 36.09765625 9.93359375 36.09765625 C9.43859375 33.62265625 9.43859375 33.62265625 8.93359375 31.09765625 C3.98359375 31.09765625 -0.96640625 31.09765625 -6.06640625 31.09765625 C-6.56140625 33.57265625 -6.56140625 33.57265625 -7.06640625 36.09765625 C-10.03640625 36.09765625 -13.00640625 36.09765625 -16.06640625 36.09765625 C-5.908948 0.27925085 -5.908948 0.27925085 0 0 Z " fill="#E8EBEC" transform="translate(314.06640625,335.90234375)"/>
<path d="M0 0 C1.670625 0.7425 1.670625 0.7425 3.375 1.5 C3.045 4.47 2.715 7.44 2.375 10.5 C1.385 10.5 0.395 10.5 -0.625 10.5 C-0.625 9.84 -0.625 9.18 -0.625 8.5 C-4.915 8.17 -9.205 7.84 -13.625 7.5 C-13.295 8.49 -12.965 9.48 -12.625 10.5 C-10.00442049 11.7568548 -10.00442049 11.7568548 -6.875 12.8125 C-1.47843799 14.96470032 1.51654133 16.39560952 4.375 21.5 C4.98732322 24.92901003 5.16872143 27.13442416 3.3828125 30.20703125 C0.49522989 33.89273452 -2.24614409 36.14666389 -6.88671875 36.8359375 C-13.24941879 36.93839644 -18.12038581 35.75056958 -23.625 32.5 C-24.285 31.84 -24.945 31.18 -25.625 30.5 C-25.31847955 27.5574037 -24.95228846 25.15457692 -23.625 22.5 C-20.91555416 23.5063656 -18.60076908 24.51615395 -16.1875 26.125 C-13.1288848 27.76620816 -11.04612846 27.73868338 -7.625 27.5 C-6.965 26.18 -6.305 24.86 -5.625 23.5 C-6.21667969 23.30664062 -6.80835938 23.11328125 -7.41796875 22.9140625 C-19.84531049 18.81891889 -19.84531049 18.81891889 -22.625 15.5 C-23.83743414 11.88336407 -24.44290586 8.14973352 -22.70703125 4.6484375 C-16.77217253 -2.76557062 -8.50092614 -3.19162885 0 0 Z " fill="#E2E5E6" transform="translate(773.625,336.5)"/>
<path d="M0 0 C8.91 0 17.82 0 27 0 C27 2.64 27 5.28 27 8 C21.06 8 15.12 8 9 8 C9 9.98 9 11.96 9 14 C12.96 14 16.92 14 21 14 C21 16.64 21 19.28 21 22 C17.04 22 13.08 22 9 22 C9 23.98 9 25.96 9 28 C14.94 28 20.88 28 27 28 C27 30.64 27 33.28 27 36 C18.09 36 9.18 36 0 36 C0 24.12 0 12.24 0 0 Z " fill="#EAECED" transform="translate(831,336)"/>
<path d="M0 0 C2.97 0 5.94 0 9 0 C9.01981934 0.64026123 9.03963867 1.28052246 9.06005859 1.94018555 C9.15563601 4.8563528 9.26518214 7.77183572 9.375 10.6875 C9.4059375 11.69490234 9.436875 12.70230469 9.46875 13.74023438 C9.50742187 14.71669922 9.54609375 15.69316406 9.5859375 16.69921875 C9.6173584 17.59471436 9.6487793 18.49020996 9.68115234 19.4128418 C10.062695 22.50871278 10.72604215 25.72604215 13 28 C16.06481021 28.1613058 18.05549278 27.98150241 21 27 C21.33 18.09 21.66 9.18 22 0 C24.97 0 27.94 0 31 0 C31.08742801 4.20820145 31.14053641 8.41616776 31.1875 12.625 C31.21263672 13.81480469 31.23777344 15.00460937 31.26367188 16.23046875 C31.32580368 23.64486415 31.00079602 28.5303296 26 34.3125 C21.91051433 37.76300353 17.1434917 37.4558389 12.0234375 37.40625 C8.11543645 36.88114392 6.15929508 35.61636787 3.3046875 32.99609375 C-0.94967674 26.48717122 -0.24025643 19.03200323 -0.125 11.5625 C-0.11597656 10.44939453 -0.10695313 9.33628906 -0.09765625 8.18945312 C-0.0742224 5.45940977 -0.041414 2.7298199 0 0 Z " fill="#E5E7E8" transform="translate(947,335)"/>
<path d="M0 0 C8.91 0 17.82 0 27 0 C27 2.64 27 5.28 27 8 C21.06 8 15.12 8 9 8 C9 9.98 9 11.96 9 14 C12.63 14 16.26 14 20 14 C20 16.64 20 19.28 20 22 C16.37 22 12.74 22 9 22 C9 23.98 9 25.96 9 28 C14.94 28 20.88 28 27 28 C27 30.64 27 33.28 27 36 C18.09 36 9.18 36 0 36 C0 24.12 0 12.24 0 0 Z " fill="#E8EBEC" transform="translate(593,336)"/>
<path d="M0 0 C2.05913859 1.20116418 3.80342714 2.25017761 5.453125 3.97265625 C5.453125 4.96265625 5.453125 5.95265625 5.453125 6.97265625 C2.953125 9.16015625 2.953125 9.16015625 0.453125 10.97265625 C-0.0625 10.66328125 -0.578125 10.35390625 -1.109375 10.03515625 C-4.3127777 8.63880123 -7.0585937 8.15952846 -10.546875 7.97265625 C-12.85191544 9.30418891 -12.85191544 9.30418891 -14.546875 10.97265625 C-15.206875 10.97265625 -15.866875 10.97265625 -16.546875 10.97265625 C-17.1678435 17.83408151 -17.1678435 17.83408151 -14.609375 24.03515625 C-10.61678376 26.56108132 -7.19928305 26.86116063 -2.546875 26.97265625 C-2.546875 26.31265625 -2.546875 25.65265625 -2.546875 24.97265625 C0.82775215 25.51989308 2.535475 26.02755625 5.453125 27.97265625 C5.08323537 30.38453931 4.85357109 31.63389768 2.95703125 33.23828125 C-3.94709607 36.73896553 -9.92932301 36.98082648 -17.359375 34.91015625 C-22.16277059 31.9904452 -24.77912935 28.27589319 -26.546875 22.97265625 C-27.20602254 15.5815593 -27.34143772 9.84599558 -22.546875 3.97265625 C-16.32234484 -1.8927664 -7.9600963 -3.21089774 0 0 Z " fill="#E4E7E8" transform="translate(1010.546875,336.02734375)"/>
<path d="M0 0 C4.33125 -0.061875 4.33125 -0.061875 8.75 -0.125 C10.10496582 -0.15231201 10.10496582 -0.15231201 11.48730469 -0.18017578 C12.20821289 -0.1851709 12.92912109 -0.19016602 13.671875 -0.1953125 C14.4050293 -0.20578613 15.13818359 -0.21625977 15.89355469 -0.22705078 C18.37433859 0.04034943 19.90319799 0.65221426 22 2 C24.35086156 5.99646465 25.13083215 8.12778567 24.4375 12.75 C22.97464758 16.05731851 22.17698406 17.36337185 19 19 C18.01 19 17.02 19 16 19 C18.01559427 22.73258198 19.9683503 26.10290419 22.75 29.3125 C25 32 25 32 25 34 C22.7734375 33.875 22.7734375 33.875 20 33 C17.56218397 30.03671832 15.56355592 26.9052644 13.4765625 23.6875 C11.15426835 20.66043089 11.15426835 20.66043089 7.2109375 20.125 C6.15132812 20.08375 5.09171875 20.0425 4 20 C4 24.62 4 29.24 4 34 C2.68 34 1.36 34 0 34 C0 22.78 0 11.56 0 0 Z " fill="#B1B5B9" transform="translate(666,601)"/>
<path d="M0 0 C2.866875 -0.0825 5.73375 -0.165 8.6875 -0.25 C9.58170654 -0.28641602 10.47591309 -0.32283203 11.3972168 -0.36035156 C15.44692845 -0.41666694 17.50103852 -0.31241573 21.01953125 1.890625 C24.05738992 5.12621412 24.40026216 7.50101208 24.3515625 11.95703125 C23.74728334 15.4685646 21.78102214 16.97743844 19 19 C17.68 19 16.36 19 15 19 C15.721875 19.99902344 16.44375 20.99804688 17.1875 22.02734375 C18.12512346 23.33064036 19.06261676 24.63403061 20 25.9375 C20.47695313 26.59685547 20.95390625 27.25621094 21.4453125 27.93554688 C25 32.88671875 25 32.88671875 25 34 C22.7734375 34.40234375 22.7734375 34.40234375 20 34 C17.89540223 31.32649153 16.24660994 28.65492191 14.5703125 25.70898438 C12.35189637 22.12386545 11.39472993 21.09481657 7.2109375 20.08984375 C6.15132812 20.06019531 5.09171875 20.03054688 4 20 C4 24.62 4 29.24 4 34 C2.68 34 1.36 34 0 34 C0 22.78 0 11.56 0 0 Z " fill="#B1B6BA" transform="translate(839,601)"/>
<path d="M0 0 C2.866875 -0.103125 5.73375 -0.20625 8.6875 -0.3125 C10.02880981 -0.38078003 10.02880981 -0.38078003 11.3972168 -0.45043945 C15.70700961 -0.52535455 17.47753528 -0.39929299 21.015625 2.3046875 C23.52693934 5.71572469 24.07426812 7.76671701 24 12 C22.375 15.375 22.375 15.375 20 18 C17.25 18.875 17.25 18.875 15 19 C17.01559427 22.73258198 18.9683503 26.10290419 21.75 29.3125 C24 32 24 32 24 34 C20.42838865 33.74354454 19.23041904 33.25052541 16.76171875 30.56640625 C16.07722656 29.57511719 15.39273437 28.58382812 14.6875 27.5625 C13.99011719 26.57378906 13.29273438 25.58507812 12.57421875 24.56640625 C11 22 11 22 11 20 C8.36 20 5.72 20 3 20 C3 24.62 3 29.24 3 34 C2.01 34 1.02 34 0 34 C0 22.78 0 11.56 0 0 Z " fill="#B8BDC1" transform="translate(487,601)"/>
<path d="M0 0 C5.94 0 11.88 0 18 0 C18 0.66 18 1.32 18 2 C18.61875 2.061875 19.2375 2.12375 19.875 2.1875 C22 3 22 3 23.375 5 C24.27295949 9.31020555 23.55746725 12.90473079 22 17 C19.17261981 19.918586 16.38333273 20.94995178 12.30078125 21.09765625 C8.15039062 21.04882812 8.15039062 21.04882812 4 21 C4 25.29 4 29.58 4 34 C2.68 34 1.36 34 0 34 C0 22.78 0 11.56 0 0 Z " fill="#AEB3B6" transform="translate(741,601)"/>
<path d="M0 0 C8.58 0 17.16 0 26 0 C26 2.64 26 5.28 26 8 C23.36 8 20.72 8 18 8 C18.00785522 9.26444946 18.00785522 9.26444946 18.01586914 10.55444336 C18.03287826 13.67227936 18.04543406 16.79009177 18.05493164 19.90795898 C18.05997057 21.25920386 18.06680177 22.61044326 18.07543945 23.96166992 C18.08752419 25.90020434 18.09269828 27.838778 18.09765625 29.77734375 C18.10551147 31.52905884 18.10551147 31.52905884 18.11352539 33.31616211 C18 36 18 36 17 37 C15.1875 37.1328125 15.1875 37.1328125 13 37.125 C12.278125 37.12757813 11.55625 37.13015625 10.8125 37.1328125 C9 37 9 37 8 36 C7.91232888 33.92737924 7.89304127 31.85179706 7.90234375 29.77734375 C7.90556641 28.51728516 7.90878906 27.25722656 7.91210938 25.95898438 C7.92046597 24.61848891 7.92893093 23.27799412 7.9375 21.9375 C7.9425134 20.59310058 7.94707658 19.2486994 7.95117188 17.90429688 C7.96300512 14.60282059 7.97949029 11.30143197 8 8 C5.36 8 2.72 8 0 8 C0 5.36 0 2.72 0 0 Z " fill="#E1E4E5" transform="translate(880,336)"/>
<path d="M0 0 C1.65 0 3.3 0 5 0 C6.83706934 4.19749205 8.67003892 8.39674135 10.49926758 12.59765625 C11.12184688 14.02587876 11.74553468 15.45361861 12.37036133 16.88085938 C13.26937537 18.93493123 14.16436085 20.99071799 15.05859375 23.046875 C15.3377916 23.68244324 15.61698944 24.31801147 15.90464783 24.97283936 C17.19341773 27.94629064 18.35704787 30.81651808 19 34 C17.68 34 16.36 34 15 34 C13.515 30.535 13.515 30.535 12 27 C5.73 27 -0.54 27 -7 27 C-7.99 29.31 -8.98 31.62 -10 34 C-11.65 34 -13.3 34 -15 34 C-13.44362266 30.20579218 -11.87876377 26.41513617 -10.3125 22.625 C-9.87744141 21.56410156 -9.44238281 20.50320313 -8.99414062 19.41015625 C-6.25436013 12.79409371 -3.30473312 6.35327159 0 0 Z " fill="#AEB2B5" transform="translate(788,601)"/>
<path d="M0 0 C3.22144909 -0.72318245 5.80855029 -0.93420601 9 0 C12.10579745 3.42650479 16 8.18973919 16 13 C16.66 13 17.32 13 18 13 C18.226875 12.34 18.45375 11.68 18.6875 11 C22.37704918 2.56674473 22.37704918 2.56674473 25 0 C28.10554267 -0.68259411 30.87435917 -0.4902966 34 0 C33.67 1.32 33.34 2.64 33 4 C32.34 4 31.68 4 31 4 C30.74347656 4.71414063 30.48695313 5.42828125 30.22265625 6.1640625 C28.91986581 9.18587035 27.26901925 11.64492746 25.4375 14.375 C21.13462626 21.53455341 20.9216585 27.80771782 21 36 C18.36 36 15.72 36 13 36 C13.06703125 35.22140625 13.1340625 34.4428125 13.203125 33.640625 C13.36959714 21.59914049 7.61985599 13.5598702 1.08569336 3.84082031 C0 2 0 2 0 0 Z " fill="#EAEDEE" transform="translate(372,336)"/>
<path d="M0 0 C8.58 0 17.16 0 26 0 C26 2.64 26 5.28 26 8 C23.03 8 20.06 8 17 8 C17 17.57 17 27.14 17 37 C14.03 37 11.06 37 8 37 C8 27.43 8 17.86 8 8 C5.36 8 2.72 8 0 8 C0 5.36 0 2.72 0 0 Z " fill="#E8EBEC" transform="translate(799,336)"/>
<path d="M0 0 C2.97 0 5.94 0 9 0 C9 9.24 9 18.48 9 28 C13.62 28 18.24 28 23 28 C23 30.64 23 33.28 23 36 C15.41 36 7.82 36 0 36 C0 24.12 0 12.24 0 0 Z " fill="#ECEFF0" transform="translate(564,336)"/>
<path d="M0 0 C3.3 0 6.6 0 10 0 C10 12.21 10 24.42 10 37 C7.03 37 4.06 37 1 37 C0 36 0 36 -0.11352539 32.58178711 C-0.11336628 31.06363012 -0.10767226 29.54546771 -0.09765625 28.02734375 C-0.0962413 27.22970108 -0.09482635 26.43205841 -0.09336853 25.61024475 C-0.08775316 23.05262565 -0.07519812 20.49509282 -0.0625 17.9375 C-0.05748698 16.20768355 -0.05292373 14.47786574 -0.04882812 12.74804688 C-0.03777875 8.49866447 -0.02050386 4.24934688 0 0 Z " fill="#DCDFE0" transform="translate(783,336)"/>
<path d="M0 0 C2.97 0 5.94 0 9 0 C9.0246501 5.10863896 9.04283607 10.21724359 9.05493164 15.32592773 C9.05997204 17.06519168 9.0668043 18.80445136 9.07543945 20.54370117 C9.08751792 23.03825937 9.09323108 25.53276173 9.09765625 28.02734375 C9.10281754 28.80963852 9.10797882 29.59193329 9.11329651 30.39793396 C9.11349226 32.26567114 9.06199694 34.13329204 9 36 C8.505 36.495 8.505 36.495 8 37 C5.36 37 2.72 37 0 37 C0 24.79 0 12.58 0 0 Z " fill="#EAEDEE" transform="translate(549,336)"/>
<path d="M0 0 C3.16909969 3.00230497 4.78607107 5.61445691 5 10 C4.29413632 13.20847126 3.54436525 15.34676171 1.4375 17.875 C-2.37855285 19.63625516 -5.8903918 19.88480888 -10 19 C-13.17457096 16.4085135 -14.54580349 14.92564305 -15.47265625 10.99609375 C-15.76653373 7.02498009 -15.13906371 5.1766485 -12.6875 2.0625 C-8.25309857 -1.34064529 -5.3455572 -1.31294387 0 0 Z " fill="#B2B7BA" transform="translate(560,271)"/>
<path d="M0 0 C2.77388249 2.21910599 4.80959306 4.32267447 6.8125 7.25 C6.8125 7.91 6.8125 8.57 6.8125 9.25 C5.8225 9.58 4.8325 9.91 3.8125 10.25 C3.27625 9.30125 2.74 8.3525 2.1875 7.375 C-0.58043501 3.73298025 -1.72726471 3.00739845 -6.1875 2.25 C-11.14775421 2.1097808 -14.23155981 2.49321401 -18.1875 5.625 C-21.37639917 9.81043017 -21.53740535 13.08889608 -21.1875 18.25 C-19.46546857 22.87229488 -17.51416412 25.80449419 -13.1875 28.25 C-9.32174217 29.01457687 -5.83308445 29.14634746 -2.30859375 27.2265625 C0.36819164 25.09803436 1.72560194 23.51069418 2.8125 20.25 C4.1325 20.58 5.4525 20.91 6.8125 21.25 C6.2362038 25.13999932 4.44513979 27.39170537 1.8125 30.25 C-3.45034935 33.68647241 -10.19713029 33.04053798 -16.1875 32.25 C-20.6471487 30.01654992 -23.27530738 26.81376639 -25.1875 22.25 C-26.59762211 15.92035414 -26.67720703 10.92077392 -23.1875 5.25 C-16.58366649 -1.9526698 -9.13225934 -5.01378944 0 0 Z " fill="#B1B6B9" transform="translate(590.1875,602.75)"/>
<path d="M0 0 C2.65325442 2.17702927 3.76406629 3.77136408 4.4140625 7.15625 C4.6778076 11.3206463 4.32774147 13.48195703 2.0625 17.0625 C-2.05391923 19.66676523 -5.2539907 20.04704003 -10 19 C-13.0625 17 -13.0625 17 -15 14 C-15.66287842 10.43879149 -15.32253242 7.19336997 -14.375 3.6875 C-10.44893711 -1.13084991 -5.70657916 -1.69083827 0 0 Z " fill="#B3B8BB" transform="translate(619,271)"/>
<path d="M0 0 C7.26 0 14.52 0 22 0 C22 0.99 22 1.98 22 3 C16.06 3 10.12 3 4 3 C4 6.96 4 10.92 4 15 C9.28 15 14.56 15 20 15 C20 16.32 20 17.64 20 19 C14.72 19 9.44 19 4 19 C4 22.96 4 26.92 4 31 C9.94 31 15.88 31 22 31 C22 31.99 22 32.98 22 34 C14.74 34 7.48 34 0 34 C0 22.78 0 11.56 0 0 Z " fill="#B6BBBE" transform="translate(705,601)"/>
<path d="M0 0 C3.7700159 2.99645132 5.78999583 5.80297623 6.625 10.5625 C5.86824702 14.72464138 4.88518621 16.89287639 2 20 C-1.88133471 21.19968527 -3.97659313 21.41866645 -7.75 19.875 C-11.22359465 16.98033779 -12.73917923 14.53232201 -13.5 10.0625 C-12.79092206 5.71939764 -11.10290655 4.10290655 -8 1 C-3.20895522 -0.59701493 -3.20895522 -0.59701493 0 0 Z " fill="#2E2E2E" transform="translate(492,343)"/>
<path d="M0 0 C3.64777447 1.02885947 6.20668015 2.66645243 8.4375 5.6875 C9.56714292 8.77556908 9.89579893 11.42784885 9.4375 14.6875 C7.77440423 17.81230103 5.6458885 20.08330575 2.4375 21.6875 C-0.375 22.0625 -0.375 22.0625 -3.5625 21.6875 C-7.62936766 18.2532562 -9.36012887 16.20528347 -10.0625 10.9375 C-10.03779497 8.22982853 -9.80914478 7.01821243 -8.17578125 4.828125 C-5.57737725 2.4608155 -3.41121026 0.91520275 0 0 Z " fill="#343434" transform="translate(660.5625,342.3125)"/>
<path d="M0 0 C1.32 0 2.64 0 4 0 C4.33 4.62 4.66 9.24 5 14 C5.95261719 12.989375 6.90523437 11.97875 7.88671875 10.9375 C9.15297129 9.62434922 10.41993576 8.31188467 11.6875 7 C12.62625977 5.99839844 12.62625977 5.99839844 13.58398438 4.9765625 C14.19951172 4.34492187 14.81503906 3.71328125 15.44921875 3.0625 C16.00955811 2.47597656 16.56989746 1.88945313 17.1472168 1.28515625 C19.54059401 -0.37497521 21.14998181 -0.23946139 24 0 C19.59156563 5.29012124 14.92440206 10.18808428 10 15 C11.47280927 20.22356355 14.81310093 23.12543785 18.625 26.75 C20.76854092 28.81666287 22.89134785 30.89728771 25 33 C25 33.33 25 33.66 25 34 C22.17104358 34.23223455 20.54030811 34.36552139 18.1472168 32.74658203 C17.58687744 32.17278809 17.02653809 31.59899414 16.44921875 31.0078125 C15.83369141 30.38519531 15.21816406 29.76257813 14.58398438 29.12109375 C13.95814453 28.46238281 13.33230469 27.80367187 12.6875 27.125 C12.04232422 26.47402344 11.39714844 25.82304688 10.73242188 25.15234375 C6 20.29472553 6 20.29472553 6 18 C5.34 18 4.68 18 4 18 C4 23.28 4 28.56 4 34 C2.68 34 1.36 34 0 34 C0 22.78 0 11.56 0 0 Z " fill="#B1B5B9" transform="translate(610,601)"/>
<path d="M0 0 C1.32 0 2.64 0 4 0 C4.01458252 0.76666992 4.02916504 1.53333984 4.04418945 2.32324219 C4.1186922 5.79933493 4.21534646 9.27446968 4.3125 12.75 C4.33505859 13.9565625 4.35761719 15.163125 4.38085938 16.40625 C4.41630859 17.56640625 4.45175781 18.7265625 4.48828125 19.921875 C4.51446533 20.99018555 4.54064941 22.05849609 4.56762695 23.15917969 C5.04761193 26.31282464 5.79802962 27.72548148 8 30 C10.131226 30.62997202 10.131226 30.62997202 12.4375 30.5 C13.19933594 30.5103125 13.96117187 30.520625 14.74609375 30.53125 C17.88069863 29.79241765 18.9861647 28.49092587 21 26 C21.63828469 23.11126112 21.63828469 23.11126112 21.609375 19.921875 C21.64160156 18.76171875 21.67382812 17.6015625 21.70703125 16.40625 C21.72830078 14.59640625 21.72830078 14.59640625 21.75 12.75 C21.77964844 11.52796875 21.80929687 10.3059375 21.83984375 9.046875 C21.91052402 6.03118356 21.96323175 3.0162645 22 0 C23.32 0 24.64 0 26 0 C26.11686443 4.02058602 26.18747388 8.04073082 26.25 12.0625 C26.30027344 13.7630957 26.30027344 13.7630957 26.3515625 15.49804688 C26.43019095 22.2404363 26.17332315 26.58819067 22 32 C17.53307553 34.97794964 13.23781389 34.61357248 8 34 C3.85959082 31.96611479 1.64479802 30.28338656 0 26 C-0.22705078 23.15917969 -0.22705078 23.15917969 -0.1953125 19.921875 C-0.18886719 18.76171875 -0.18242188 17.6015625 -0.17578125 16.40625 C-0.15902344 15.1996875 -0.14226563 13.993125 -0.125 12.75 C-0.11597656 11.52796875 -0.10695313 10.3059375 -0.09765625 9.046875 C-0.07409513 6.03105218 -0.04119706 3.01562508 0 0 Z " fill="#B0B4B8" transform="translate(525,601)"/>
<path d="M0 0 C0.75410156 0.00451172 1.50820313 0.00902344 2.28515625 0.01367188 C4.14847127 0.02546501 6.01174555 0.04340058 7.875 0.0625 C8.21931089 4.11771715 8.36138455 8.01469972 7.875 12.0625 C3.44882108 17.10342599 -3.79310673 17.65541261 -10.125 19.0625 C-10.125 13.1225 -10.125 7.1825 -10.125 1.0625 C-6.93675432 -0.53162284 -3.49603338 -0.03924735 0 0 Z " fill="#2F2F2F" transform="translate(545.125,232.9375)"/>
<path d="M0 0 C11.88452656 -0.4295612 11.88452656 -0.4295612 16 3 C16.33 3.33 16.66 3.66 17 4 C16.77021823 10.20410783 16.77021823 10.20410783 14.125 12.9375 C9.3624775 14.55675765 5.01568944 14.18128998 0 14 C0 9.38 0 4.76 0 0 Z " fill="#2B2B2B" transform="translate(490,604)"/>
<path d="M0 0 C11.09433962 -0.6095791 11.09433962 -0.6095791 15.25 2.1875 C17.10519625 5.1690654 17.49051479 6.56639645 17 10 C16.34 10 15.68 10 15 10 C15 10.66 15 11.32 15 12 C10.17683306 14.91686762 5.49839366 14.13091413 0 14 C0 9.38 0 4.76 0 0 Z " fill="#2F2F2F" transform="translate(670,604)"/>
<path d="M0 0 C1.8975 -0.061875 3.795 -0.12375 5.75 -0.1875 C7.35101562 -0.23970703 7.35101562 -0.23970703 8.984375 -0.29296875 C12.34628825 0.03364199 13.67024342 0.58723546 16 3 C16.5625 6.4375 16.5625 6.4375 16 10 C14.1875 12.4375 14.1875 12.4375 11 14 C7.26404083 14.32007515 3.76377201 14.1813866 0 14 C0 9.38 0 4.76 0 0 Z " fill="#323232" transform="translate(843,604)"/>
<path d="M0 0 C6.91011034 -0.37351948 10.65889743 -0.49777059 16 4 C15.39501779 10.41281139 15.39501779 10.41281139 13.84375 12.71875 C9.99533482 15.39307241 4.45080652 14.1435744 0 14 C0 9.38 0 4.76 0 0 Z " fill="#2F2F2F" transform="translate(745,604)"/>
<path d="M0 0 C8.58 0 17.16 0 26 0 C26 0.99 26 1.98 26 3 C22.04 3 18.08 3 14 3 C14 13.23 14 23.46 14 34 C13.01 34 12.02 34 11 34 C11 23.77 11 13.54 11 3 C7.37 3 3.74 3 0 3 C0 2.01 0 1.02 0 0 Z " fill="#BEC3C7" transform="translate(448,601)"/>
<path d="M0 0 C2.61666628 2.61666628 3.71634007 5.64348017 5.125 9 C5.40214844 9.64195312 5.67929687 10.28390625 5.96484375 10.9453125 C8 15.73745382 8 15.73745382 8 18 C3.05 18 -1.9 18 -7 18 C-5.02989474 11.79416842 -2.74844552 5.90148454 0 0 Z " fill="#303030" transform="translate(790,605)"/>
<path d="M0 0 C1.875 1.125 1.875 1.125 3 3 C3.54624158 6.66762206 3.47898298 8.3258758 1.3125 11.375 C-1 13 -1 13 -3.5 13.5625 C-6 13 -6 13 -8.3125 10.8125 C-10.1330368 7.778272 -10.72664893 6.45158242 -10 3 C-7.03796411 -0.30380926 -4.29267815 -0.54800147 0 0 Z " fill="#323333" transform="translate(558,274)"/>
<path d="M0 0 C1.32 0 2.64 0 4 0 C4 11.22 4 22.44 4 34 C2.68 34 1.36 34 0 34 C0 22.78 0 11.56 0 0 Z " fill="#B5B9BD" transform="translate(819,601)"/>
<path d="M0 0 C3.27924143 0.46846306 4.66115068 1.22086986 7.0625 3.4375 C6.46390845 9.78257042 6.46390845 9.78257042 4.875 12.375 C2.25607381 13.91023259 0.03335195 13.6355568 -2.9375 13.4375 C-2.9375 12.7775 -2.9375 12.1175 -2.9375 11.4375 C-3.5975 11.4375 -4.2575 11.4375 -4.9375 11.4375 C-6.26118621 5.18007426 -6.26118621 5.18007426 -4.875 2 C-2.9375 0.4375 -2.9375 0.4375 0 0 Z " fill="#373737" transform="translate(729.9375,273.5625)"/>
<path d="M0 0 C3.0625 0.5 3.0625 0.5 5.4375 2.1875 C7.0625 4.5 7.0625 4.5 7.625 7 C7.0625 9.5 7.0625 9.5 4.875 11.8125 C1.88948671 13.60380798 0.4652576 13.88888658 -2.9375 13.5 C-2.9375 12.84 -2.9375 12.18 -2.9375 11.5 C-3.5975 11.5 -4.2575 11.5 -4.9375 11.5 C-6.26118621 5.24257426 -6.26118621 5.24257426 -4.875 2.0625 C-2.9375 0.5 -2.9375 0.5 0 0 Z " fill="#383839" transform="translate(755.9375,273.5)"/>
<path d="M0 0 C2.31361802 3.47042703 2.51020728 4.91834173 2 9 C-0.08359207 11.3151023 -1.44435228 11.90276165 -4.5 12.4375 C-7.89834723 11.84278924 -9.01241034 10.79734842 -11 8 C-11.5 4.9375 -11.5 4.9375 -11 2 C-7.82775887 -1.933579 -4.58022934 -1.18746687 0 0 Z " fill="#343434" transform="translate(618,275)"/>
<path d="M0 0 C6.93 0 13.86 0 21 0 C21 1.98 21 3.96 21 6 C14.07 6 7.14 6 0 6 C0 4.02 0 2.04 0 0 Z " fill="#EAEDEE" transform="translate(721,354)"/>
<path d="M0 0 C0 0.66 0 1.32 0 2 C0.61875 2.268125 1.2375 2.53625 1.875 2.8125 C4 4 4 4 6 7 C6.25760279 9.69452521 6.08900053 12.28548375 6 15 C5.01 15 4.02 15 3 15 C2.87882813 14.30132812 2.75765625 13.60265625 2.6328125 12.8828125 C2.46523438 11.97273438 2.29765625 11.06265625 2.125 10.125 C1.96257813 9.22007812 1.80015625 8.31515625 1.6328125 7.3828125 C1.16955297 4.83494012 1.16955297 4.83494012 -1 3 C-5.84491769 1.88194207 -9.64830906 1.36874502 -14 4 C-15.12428093 6.94787536 -15.62708218 9.87520588 -16 13 C-16.99 12.67 -17.98 12.34 -19 12 C-18.28207958 6.97455704 -16.7208269 3.56438809 -12.9375 0.125 C-8.54190248 -1.55842033 -4.57080083 -0.73665334 0 0 Z " fill="#464647" transform="translate(620,269)"/>
<path d="M0 0 C1.423125 -0.061875 2.84625 -0.12375 4.3125 -0.1875 C5.51326172 -0.23970703 5.51326172 -0.23970703 6.73828125 -0.29296875 C9 0 9 0 10.79296875 1.26171875 C12 3 12 3 12 7 C7.7975546 9.80163026 4.99895065 9.14489712 0 9 C0 6.03 0 3.06 0 0 Z " fill="#313131" transform="translate(348,344)"/>
<path d="M0 0 C7.38461538 -0.49230769 7.38461538 -0.49230769 10.5 2 C10.995 2.66 11.49 3.32 12 4 C11.0625 6.5 11.0625 6.5 9 9 C5.88497009 9.46946373 3.17422748 9.23001648 0 9 C0 6.03 0 3.06 0 0 Z " fill="#3F3F3F" transform="translate(921,344)"/>
<path d="M0 0 C1.4370809 -0.05422947 2.87475462 -0.09289723 4.3125 -0.125 C5.11300781 -0.14820313 5.91351562 -0.17140625 6.73828125 -0.1953125 C9 0 9 0 12 2 C11.125 5.875 11.125 5.875 10 7 C8.31391034 7.07205511 6.62499341 7.08386068 4.9375 7.0625 C4.01839844 7.05347656 3.09929688 7.04445313 2.15234375 7.03515625 C1.44207031 7.02355469 0.73179687 7.01195312 0 7 C0 4.69 0 2.38 0 0 Z " fill="#2C2C2C" transform="translate(522,358)"/>
<path d="M0 0 C3.82209946 2.38692377 6.56170311 4.68510932 8 9 C8.03954234 11.33299825 8.04401732 13.66708189 8 16 C7.01 16.33 6.02 16.66 5 17 C5.0825 15.96875 5.165 14.9375 5.25 13.875 C4.95300706 9.27160945 4.12946069 7.37018843 1 4 C-2.93614223 2.94567619 -6.13017715 2.60686377 -10 4 C-10 3.01 -10 2.02 -10 1 C-6.29397865 -0.23534045 -3.90246386 -0.45528745 0 0 Z " fill="#414242" transform="translate(559,268)"/>
<path d="M0 0 C4.29 0 8.58 0 13 0 C12.21625 1.051875 11.4325 2.10375 10.625 3.1875 C8.59491421 6.01696802 7.10887021 8.67338936 6 12 C5.34 11.67 4.68 11.34 4 11 C3.855625 9.865625 3.71125 8.73125 3.5625 7.5625 C3.376875 6.386875 3.19125 5.21125 3 4 C2.01 3.34 1.02 2.68 0 2 C0 1.34 0 0.68 0 0 Z " fill="#494A4A" transform="translate(737,269)"/>
<path d="M0 0 C2 1 2 1 2.8515625 3.28515625 C3.10679687 4.20167969 3.36203125 5.11820312 3.625 6.0625 C3.88539063 6.98160156 4.14578125 7.90070313 4.4140625 8.84765625 C4.60742188 9.55792969 4.80078125 10.26820313 5 11 C2.36 11 -0.28 11 -3 11 C-2.32829194 7.1936543 -1.27253436 3.64793184 0 0 Z " fill="#2F2F2F" transform="translate(315,348)"/>
<path d="M0 0 C2.64 0 5.28 0 8 0 C8.5625 1.9375 8.5625 1.9375 9 4 C8 5 8 5 6.15234375 5.09765625 C4.1015625 5.06510417 2.05078125 5.03255208 0 5 C0 3.35 0 1.7 0 0 Z " fill="#2B2B2B" transform="translate(522,344)"/>
<path d="M0 0 C0.99 0 1.98 0 3 0 C3 2.64 3 5.28 3 8 C2.01 8 1.02 8 0 8 C0 5.36 0 2.72 0 0 Z " fill="#555657" transform="translate(623,276)"/>
<path d="M0 0 C0 3 0 3 -2 6 C-2.38499891 7.65549531 -2.72793135 9.3222433 -3 11 C-3.66 11 -4.32 11 -5 11 C-5.3125 8.3125 -5.3125 8.3125 -5 5 C-2.5 2.125 -2.5 2.125 0 0 Z " fill="#343434" transform="translate(548,270)"/>
<path d="M0 0 C0 0.66 0 1.32 0 2 C-2.64 2.66 -5.28 3.32 -8 4 C-8 3.01 -8 2.02 -8 1 C-5.07175348 0.02391783 -3.04386724 -0.08226668 0 0 Z " fill="#3C3C3C" transform="translate(557,268)"/>
</svg>
