<svg xmlns="http://www.w3.org/2000/svg" width="1310" height="854"><path d="M0 0h1310v854H0V0z" fill="#2C2C2C"/><path d="M934.766 396.71l2.11-.02c2.315-.02 4.63-.024 6.944-.026l4.854-.02c3.405-.012 6.81-.016 10.214-.015 4.32 0 8.637-.026 12.956-.061 3.352-.023 6.703-.026 10.054-.025a582.45 582.45 0 004.767-.027c19.558-.174 37.86 3.787 52.464 17.48 11.266 11.651 14.254 26.013 14.172 41.66-.362 14.47-5.484 25.358-15.91 35.36-3.524 2.925-7.291 4.99-11.391 6.984l1.01 1.822c4.292 7.804 8.408 15.694 12.486 23.613a3815.29 3815.29 0 003.402 6.58c2.058 3.983 4.092 7.978 6.102 11.985l1.448 2.886c2.643 5.547 2.643 5.547 2.203 8.284C1052 555 1052 555 1051 556c-2.922.138-5.819.213-8.742.238l-2.665.025c-1.864.014-3.729.024-5.593.032-2.856.017-5.71.061-8.566.105-1.809.01-3.618.019-5.426.026l-2.595.053c-5.864-.022-5.864-.022-8.248-2.007L1008 552l-.827-1.698c-.987-2.078-1.91-4.176-2.825-6.286l-1.035-2.347c-1.088-2.471-2.17-4.945-3.25-7.419a5419.48 5419.48 0 00-3.24-7.376c-.672-1.526-1.34-3.053-2.007-4.581a200.745 200.745 0 00-6.074-12.647C988 508 988 508 988 506h-23l.035 10.684c.008 3.398.014 6.797.02 10.196.005 2.37.012 4.74.02 7.11.013 3.398.018 6.796.023 10.194l.015 3.232v2.972l.007 2.632C965 555 965 555 964 556c-2.643.113-5.259.164-7.902.168l-2.403.01c-1.68.005-3.361.007-5.041.007-2.577.002-5.154.02-7.73.04-1.63.003-3.26.005-4.889.005l-2.345.022c-5.461-.023-5.461-.023-7.69-2.252-.252-2.661-.252-2.661-.254-6.111l-.017-3.952.012-4.36a3334.04 3334.04 0 01-.01-17.012c.005-4.334 0-8.666-.002-12.999-.004-7.277 0-14.553.01-21.83.011-8.422.008-16.844-.003-25.265-.01-7.222-.01-14.443-.006-21.664.004-4.317.004-8.634-.003-12.951-.005-4.058-.001-8.116.01-12.174.003-1.493.002-2.985-.002-4.477a870.45 870.45 0 01.011-6.094l.002-3.45c.537-5.674 4.228-4.923 9.018-4.952zm-667.108 0l2.076-.02a864.58 864.58 0 016.832-.026l4.78-.02c3.353-.012 6.707-.016 10.06-.015 4.25 0 8.498-.026 12.747-.061 3.301-.023 6.602-.026 9.903-.025 1.563-.003 3.126-.011 4.688-.027 20.415-.185 38.668 3.948 53.97 18.066 9.54 9.994 13.69 23.671 13.598 37.168-.005.88-.01 1.76-.017 2.666-.248 13.363-3.803 23.976-13.045 33.834-4.273 4.075-9.106 6.913-14.25 9.75l1.03 1.861c4.108 7.479 8.07 15.027 11.984 22.61 1.048 2.028 2.1 4.054 3.152 6.08 1.97 3.803 3.913 7.62 5.834 11.449l1.644 3.277 1.415 2.942 1.224 2.529c.816 2.562.679 3.772-.283 6.252-2.119 2.119-6.81 1.213-9.742 1.238l-2.665.025c-1.864.014-3.729.024-5.593.032-2.856.017-5.71.061-8.566.105-1.809.01-3.618.019-5.426.026l-2.595.053c-5.864-.022-5.864-.022-8.248-2.007L341 552l-.827-1.698c-.987-2.078-1.91-4.176-2.825-6.286l-1.035-2.347c-1.088-2.471-2.17-4.945-3.25-7.419-1.079-2.46-2.158-4.918-3.24-7.376-.672-1.526-1.34-3.053-2.007-4.581a200.745 200.745 0 00-6.074-12.647C321 508 321 508 321 506h-23l.07 10.43c.016 3.322.028 6.645.04 9.968.01 2.314.024 4.629.04 6.943.025 3.321.036 6.642.045 9.964l.032 3.15v2.912l.014 2.57C298 554 298 554 296 556c-2.63.2-5.151.28-7.781.266l-2.331.005c-1.628.002-3.255-.002-4.883-.01-2.495-.011-4.99 0-7.485.012-1.58 0-3.16-.003-4.739-.007l-2.27.012c-5.281-.048-5.281-.048-7.511-2.278-.252-2.661-.252-2.661-.254-6.111l-.017-3.952.012-4.36a3334.042 3334.042 0 01-.01-17.012c.005-4.334 0-8.666-.002-12.999-.004-7.277 0-14.553.01-21.83.011-8.422.008-16.844-.003-25.265-.01-7.222-.01-14.443-.006-21.664.004-4.317.004-8.634-.003-12.951-.005-4.058-.001-8.116.01-12.174.003-1.493.002-2.985-.002-4.477a870.45 870.45 0 01.011-6.094l.002-3.45c.533-5.633 4.145-4.922 8.91-4.952z" fill="#EBEEEF"/><path d="M574 210h208v60l-17 1 3 5c-.227 4.313-2.115 8.157-4 12-4.007 2.671-7.289 2.827-12 2-3.282-2.53-4.692-4.077-6-8l-2-1c.437-5.685.732-6.732 5-11l-12-1v2l1.938.563C741 273 741 273 742 276.125c0 4.766-1.257 8.001-4 11.875-4.012 2.675-7.284 2.818-12 2-3.063-2.25-3.063-2.25-5-5v-4h-3c.615-6.523.615-6.523 2.563-8.938L722 271l-6-1v3h-80v8h80v3h-83v-15h-5v15h-2l-.188-3.688c-.525-4.5-2.4-6.338-5.812-9.312v-2c-5.07-.36-8.876-.562-13.5 1.75-3.014 2.674-3.014 2.674-4.5 6.25v7h-35l-2-10c-3.125-3.634-4.817-4.834-9.563-5.5-4.88.71-8.293 2.717-11.437 6.5-.573 2.272-.573 2.272-.688 4.688l-.199 2.449L543 284c-3.629-.672-6.23-1.515-9-4-.797-3.679-.7-7.339-.664-11.09l-.015-3.321c-.003-2.32.006-4.639.027-6.958.027-3.552 0-7.1-.032-10.652.004-2.252.01-4.504.02-6.756l-.03-3.223c.115-7.303.115-7.303 2.815-10.554 3.168-1.591 6.212-2.772 9.606-3.805l1.907-.589c1.321-.405 2.644-.804 3.969-1.199a658.848 658.848 0 006.069-1.85C567.525 217 567.525 217 571 217v52h3v-59z" fill="#BCC1C5"/><path d="M563.706 396.725l2.09-.015c2.292-.014 4.584-.013 6.876-.01l4.8-.014a2833.1 2833.1 0 0110.099-.002 1886.2 1886.2 0 0012.829-.034c3.313-.015 6.627-.016 9.94-.013 1.574 0 3.148-.005 4.722-.015 19.836-.113 38.202 3.394 53.055 17.37 11.229 11.568 14.303 25.857 14.249 41.4-.227 11.275-3.21 20.807-10.366 29.608l-1.602 2.047C659.084 499.907 639.464 504.932 623 506c-4.855.111-9.706.095-14.563.062l-3.923-.013A3350.67 3350.67 0 01595 506l.02 1.764c.066 6.05.112 12.101.145 18.152.015 2.259.035 4.518.061 6.777.037 3.244.054 6.488.067 9.733.015 1.012.03 2.025.047 3.068v2.851l.02 2.51c-.45 2.685-1.172 3.558-3.36 5.145a65.054 65.054 0 01-7.879.363l-2.327.002a554.754 554.754 0 01-4.864-.029c-2.487-.023-4.972-.02-7.46-.014-1.574-.005-3.149-.012-4.724-.021l-2.26.003c-5.255-.073-5.255-.073-7.486-2.304-.252-2.661-.252-2.661-.254-6.111l-.017-3.952.012-4.36a3334.042 3334.042 0 01-.01-17.012c.005-4.334 0-8.666-.002-12.999-.004-7.277 0-14.553.01-21.83.011-8.422.008-16.844-.003-25.265-.01-7.222-.01-14.443-.006-21.664.004-4.317.004-8.634-.003-12.951-.005-4.058-.001-8.116.01-12.174.003-1.493.002-2.985-.002-4.477a870.45 870.45 0 01.011-6.094l.002-3.45c.535-5.655 4.18-4.918 8.958-4.936zm192.958-.13a368.08 368.08 0 005.281-.103 403.2 403.2 0 017.606-.113l2.38-.084c2.234.008 2.234.008 6.069.705 3.813 4.119 5.504 9.39 7.406 14.602l.96 2.569c.689 1.844 1.374 3.69 2.056 5.536 1.877 5.081 3.78 10.153 5.68 15.227l1.208 3.234c4.034 10.789 8.169 21.538 12.317 32.284 1.25 3.239 2.496 6.478 3.74 9.719a8760.823 8760.823 0 0011.778 30.5c1.8 4.64 3.59 9.282 5.377 13.926a1781.54 1781.54 0 002.578 6.633c1.193 3.053 2.37 6.112 3.545 9.172l1.082 2.736c2.916 7.686 2.916 7.686 1.273 11.862-2.856 2.856-13.1 1.323-17.146 1.35-1.816.017-3.632.044-5.447.082-2.613.055-5.224.077-7.837.091l-2.462.07c-2.295-.01-2.295-.01-6.108-.593-1.922-2.276-1.922-2.276-3-5l-.983-2.08a1110.6 1110.6 0 01-2.705-6.545l-.97-2.312-.916-2.227-.831-2.014C788 534 788 534 788 531l-58 1-9 22c-2.574 2.574-4.307 2.248-7.817 2.278l-2.402-.012-2.465.005c-1.722.002-3.444-.002-5.165-.01-2.64-.011-5.28 0-7.92.012-1.671 0-3.342-.003-5.012-.007l-2.402.012c-5.587-.048-5.587-.048-7.817-2.278.317-5.547 2.626-10.522 4.691-15.61l1.142-2.854c.813-2.033 1.628-4.066 2.446-6.097a4695.27 4695.27 0 006.537-16.36c.442-1.11.884-2.217 1.338-3.36 4.055-10.2 7.969-20.45 11.846-30.719 5.928-15.679 12.013-31.291 18.187-46.875l1.232-3.111c12.782-32.267 12.782-32.267 29.245-32.419z" fill="#EBEEEF"/><path d="M418.555 395.746l2.906-.017 3.2.012 3.36-.01c3.68-.01 7.36-.003 11.042.003l7.644-.005c5.347-.003 10.693 0 16.04.01 6.186.011 12.372.008 18.558-.003 5.945-.01 11.89-.01 17.834-.004 2.533.002 5.066 0 7.598-.005 3.535-.005 7.069.003 10.603.014l3.199-.012 2.906.017 2.534.002C528 396 528 396 530 398c.259 3.041.259 3.041.266 6.906l.005 2.062c.002 1.44-.002 2.879-.01 4.318-.011 2.205 0 4.41.012 6.616a8456627350.954 8456627350.954 0 01-.015 8.057C530 429 530 429 528 431a83.59 83.59 0 01-7.295.227h-2.277c-2.49 0-4.978-.016-7.467-.032l-5.17-.008a4418.81 4418.81 0 01-13.623-.05c-4.631-.02-9.263-.03-13.895-.04-9.09-.02-18.182-.056-27.273-.097v27l10.902-.035c3.469-.008 6.937-.014 10.405-.02 2.419-.005 4.837-.012 7.255-.02 3.468-.013 6.935-.018 10.403-.023l3.298-.015h3.034l2.685-.007C501 458 501 458 502 459c.1 2.364.14 4.698.133 7.063l.003 2.14c0 1.497-.001 2.993-.006 4.49-.005 2.297 0 4.595.007 6.893 0 1.45-.002 2.901-.004 4.352l.006 2.095c-.024 4.852-.024 4.852-1.139 5.967a75.897 75.897 0 01-4.703.114h-3.034l-3.298-.016-3.359-.005c-3.556-.005-7.112-.018-10.668-.03-2.405-.006-4.81-.01-7.213-.014-5.909-.01-11.817-.03-17.725-.049v28l7.052-.016c7.672-.016 15.343-.027 23.015-.036 4.653-.005 9.306-.012 13.96-.023 4.486-.011 8.973-.017 13.46-.02 1.716-.002 3.431-.005 5.147-.01 2.395-.008 4.79-.009 7.184-.009l2.171-.01c4.897.01 4.897.01 6.011 1.124.088 2.448.115 4.868.098 7.316l-.005 2.216c-.005 2.343-.018 4.687-.03 7.03-.006 1.586-.01 3.171-.014 4.756-.011 3.894-.028 7.788-.049 11.682-2.389 1.194-3.85 1.126-6.517 1.127l-2.88.009-3.171-.007-3.331.006c-3.649.004-7.297.001-10.945-.002a13511.846 13511.846 0 01-23.476-.002c-6.131-.006-12.263-.004-18.394.001-5.893.005-11.785.005-17.678.002-2.51 0-5.02 0-7.53.002-3.504.003-7.007-.001-10.51-.007l-3.17.007-2.881-.009-2.512-.001C414 555 414 555 412 554c-.047-20.305-.082-40.61-.104-60.916-.01-9.428-.024-18.855-.047-28.283-.02-8.214-.033-16.429-.037-24.644a5165.49 5165.49 0 00-.023-13.055c-.014-4.092-.018-8.185-.015-12.277 0-1.505-.005-3.01-.012-4.516-.01-2.049-.007-4.097-.003-6.146l-.005-3.48c.433-4.716 2.606-4.933 6.8-4.937z" fill="#ECEFF0"/><path d="M868.664 396.722l2.336.012 2.398-.005c1.675-.002 3.35.002 5.024.01 2.568.011 5.135 0 7.703-.012 1.625 0 3.25.003 4.875.007l2.336-.012c5.434.048 5.434.048 7.664 2.278.252 2.661.252 2.661.254 6.111l.017 3.952-.012 4.36a3334.042 3334.042 0 01.01 17.012c-.005 4.334 0 8.666.002 12.999.004 7.277 0 14.553-.01 21.83a9671.47 9671.47 0 00.003 25.265c.01 7.222.01 14.443.006 21.664-.004 4.317-.004 8.634.003 12.951.005 4.058.001 8.116-.01 12.174-.003 1.493-.002 2.985.002 4.477a870.45 870.45 0 01-.011 6.094l-.002 3.45C901 554 901 554 899 556c-2.701.2-5.298.28-8 .266l-2.398.005c-1.675.002-3.35-.002-5.024-.01-2.568-.011-5.135 0-7.703.012-1.625 0-3.25-.003-4.875-.007l-2.336.012c-5.434-.048-5.434-.048-7.664-2.278-.252-2.661-.252-2.661-.254-6.111l-.017-3.952.012-4.36a3334.042 3334.042 0 01-.01-17.012c.005-4.334 0-8.666-.002-12.999-.004-7.277 0-14.553.01-21.83.011-8.422.008-16.844-.003-25.265-.01-7.222-.01-14.443-.006-21.664.004-4.317.004-8.634-.003-12.951-.005-4.058-.001-8.116.01-12.174.003-1.493.002-2.985-.002-4.477a870.45 870.45 0 01.011-6.094l.002-3.45c.493-5.205 3.36-4.899 7.916-4.939z" fill="#EAEDEE"/><path d="M594 432c4.25-.075 8.5-.129 12.75-.165a567.27 567.27 0 004.326-.061c19.847-.351 19.847-.351 27.361 6.664l1.934 1.746c3.918 4.368 4.056 8.292 3.95 13.988-.584 5.148-2.546 9.11-6.259 12.703-6.552 3.574-12.774 4.251-20.175 4.258l-1.985.003c-1.372 0-2.745-.001-4.117-.006-2.109-.005-4.217 0-6.326.007-1.337 0-2.673-.002-4.01-.004l-3.677-.004C595 471 595 471 594 470a222.098 222.098 0 01-.098-8.41l.005-2.552c.005-2.7.018-5.4.03-8.1A6387.782 6387.782 0 01594 432z" fill="#2F2F2F"/><path d="M965 432c4.25-.075 8.5-.129 12.75-.165a567.27 567.27 0 004.326-.061c11.511-.204 20.632.166 29.326 8.48 3.89 4.25 4.035 8.61 3.918 14.176-.62 4.982-2.662 8.966-6.258 12.445-6.552 3.574-12.774 4.251-20.175 4.258l-1.985.003c-1.372 0-2.745-.001-4.117-.006-2.109-.005-4.217 0-6.326.007-1.337 0-2.673-.002-4.01-.004l-3.677-.004C966 471 966 471 965 470a222.098 222.098 0 01-.098-8.41l.005-2.552c.005-2.7.018-5.4.03-8.1A6387.782 6387.782 0 01965 432z" fill="#393939"/><path d="M298 432l13.938-.125 4.34-.055c9.456-.041 18.076-.076 25.722 6.18 5.01 5.173 6.358 9.28 6.285 16.36-.542 5.023-2.608 9.018-6.223 12.515-6.647 3.626-12.922 4.254-20.43 4.223l-3.768-.008-4.739-.027L298 471v-39z" fill="#252526"/><path d="M666 335c5.808 1.95 9.282 5.994 12.25 11.188 1.449 5.433 1.436 10.715-.313 16.062-3.113 4.419-6.759 8.024-11.937 9.75-7.391.66-13.127.795-19-4-4.237-4.4-5.354-8.505-5.563-14.563.251-5.706.905-9.029 4.563-13.437 2.277-1.648 4.443-2.769 7-4 3.955-1.978 8.69-1.429 13-1zm-168.75 1.063c4.419 3.113 8.024 6.759 9.75 11.937.661 7.417.712 13.048-4 19-6.718 5.21-12.698 5.803-21 5-3.5-1.75-3.5-1.75-6-4l-2.25-1.938c-3.977-4.687-4.139-9.5-3.988-15.414.41-4.56 1.673-7.266 5.113-10.304 6.963-5.427 13.778-7.092 22.375-4.281z" fill="#E6E9EA"/><path d="M427 336h10c3.385 6.52 6.233 13.197 9 20 3.385-6.52 6.233-13.197 9-20 1.48-.027 2.958-.046 4.438-.063l2.496-.035C464 336 464 336 465 337c.089 2.594.115 5.16.098 7.754l-.005 2.35c-.005 2.486-.018 4.972-.03 7.459-.006 1.681-.01 3.363-.014 5.044A5119.67 5119.67 0 01465 372h-9l-1-14-6 13h-6c-.814-1.77-1.626-3.541-2.438-5.313l-1.37-2.988C438 360 438 360 437 357l-1 15h-9v-36z" fill="#E3E6E7"/><path d="M758 445c2.266 2.266 2.766 3.771 3.788 6.785l1.03 3.014 1.096 3.264 1.135 3.34c.791 2.332 1.58 4.666 2.365 7 1.207 3.584 2.423 7.165 3.64 10.745.767 2.263 1.533 4.526 2.298 6.79l1.107 3.263 1.012 3.014.897 2.66C777 497 777 497 777 499h-36c.654-4.578 1.14-7.92 2.582-12.11l.97-2.849 1.046-3.006 1.072-3.131c1.125-3.283 2.258-6.562 3.392-9.841l2.3-6.698A7531.525 7531.525 0 01758 445z" fill="#363636"/><path d="M513 336c3.396-.117 6.79-.187 10.188-.25l2.908-.102c7.162-.099 7.162-.099 11.017 2.243 2.534 2.832 3.04 4.397 3.074 8.109l.043 2.125C540 350 540 350 538 352l1.938 2.375c3.192 4.064 3.591 6.423 3.062 11.625-2.773 3.9-5.626 5.763-10.336 6.727-6.186.634-12.458.587-18.664.273-1-1-1-1-1.114-4.418 0-1.518.006-3.037.016-4.555l.005-2.417c.005-2.557.018-5.115.03-7.673.006-1.73.01-3.46.014-5.189.011-4.25.028-8.499.049-12.748z" fill="#E4E7E8"/><path d="M912 336l10.125-.25 3.157-.11c5.724-.069 9.3.323 13.718 4.36 2.897 4.181 2.792 9.111 2 14-1.42 2.513-2.878 3.984-5 6 .36.699.722 1.397 1.094 2.117l1.406 2.758 1.406 2.742C941 370 941 370 941 372h-10l-.918-2.152-1.27-2.786-1.23-2.777c-1.612-2.893-1.612-2.893-6.582-3.285v12h-9v-37z" fill="#E9ECED"/><path d="M339 336l10.063-.375 3.129-.166c4.95-.088 8.058.185 11.93 3.44 3.02 2.97 4.063 5.048 4.253 9.288-.017 5.317-1.992 7.838-5.375 11.813.36.699.722 1.397 1.094 2.117l1.406 2.758 1.406 2.742C368 370 368 370 368 372h-10c-4-8.75-4-8.75-4-11h-6l.035 2.371c.01 1.012.018 2.024.027 3.067l.036 3.058C348 372 348 372 347 373h-8v-37z" fill="#E8EBEC"/><path d="M685 336c9 0 9 0 10.908 1.421l1.088 1.974 1.252 2.146 1.19 2.271 1.271 2.237a199.63 199.63 0 012.289 4.142c.915 1.653 1.954 3.237 3.002 4.809l1-19h9v36c-9 0-9 0-11.488-2.16l-1.824-2.902-1.864-2.848c-1.974-3.344-3.897-6.718-5.824-10.09l-1 19h-9v-37z" fill="#E5E7E8"/><path d="M1022 336h9l1 10 1.582-2.188c5.94-7.49 5.94-7.49 10.465-8.476 2.714.035 5.277.214 7.953.664-1.739 3.993-4.242 6.255-7.441 9.121-1.949 2.35-2.264 3.853-2.559 6.879.844 2.241.844 2.241 2.309 4.32l1.513 2.371 1.616 2.434a778.018 778.018 0 013.12 4.82l1.416 2.141C1053 370 1053 370 1053 373c-3.664 1.033-6.376 1.268-10 0-3.715-3.942-9-11.542-9-17l-2 1c-.312 2.714-.513 5.34-.625 8.063l-.117 2.298c-.095 1.88-.177 3.76-.258 5.639h-9v-37z" fill="#E4E7E8"/><path d="M286.277 335.895C288.187 337 288.187 337 291 339c0 4 0 4-2 6.25l-2 1.75-2.5-1.563c-4.253-1.746-7.153-1.914-11.5-.437-2.765 1.853-2.765 1.853-4 5-.089 4.22.67 8.01 2 12 3.015 1.005 5.042 1.103 8.188 1.063l2.73-.028L284 363v-3h-5v-8h13v16c-6.822 4.28-13.002 5.298-21 4-5.422-2.347-9.075-6.385-11.367-11.797-1.443-5.024-1.915-9.724.543-14.476 6.287-8.74 15.239-14.1 26.101-9.832zm27.789.007l2.497.036 2.503.027L321 336c1.856 4.804 3.707 9.61 5.554 14.417.63 1.635 1.26 3.27 1.892 4.906a3463.13 3463.13 0 012.71 7.044l.862 2.223C334 369.772 334 369.772 334 372h-10l-1-5h-15l-1 5h-9c10.157-35.818 10.157-35.818 16.066-36.098z" fill="#E8EBEC"/><path d="M773.625 336.5L777 338l-1 9h-3v-2l-13-1 1 3c2.62 1.257 2.62 1.257 5.75 2.313 5.397 2.152 8.392 3.583 11.25 8.687.612 3.429.794 5.634-.992 8.707-2.888 3.686-5.63 5.94-10.27 6.629-6.362.102-11.233-1.085-16.738-4.336l-2-2c.307-2.943.673-5.345 2-8 2.71 1.006 5.024 2.016 7.438 3.625 3.058 1.641 5.14 1.614 8.562 1.375l2-4-1.793-.586C753.78 355.32 753.78 355.32 751 352c-1.212-3.617-1.818-7.35-.082-10.852 5.935-7.414 14.206-7.84 22.707-4.648z" fill="#E2E5E6"/><path d="M831 336h27v8h-18v6h12v8h-12v6h18v8h-27v-36z" fill="#EAECED"/><path d="M947 335h9l.06 1.94c.096 2.916.205 5.832.315 8.748.03 1.007.062 2.014.094 3.052l.117 2.96.095 2.713c.382 3.096 1.045 6.313 3.319 8.587 3.065.161 5.055-.018 8-1l1-27h9c.087 4.208.14 8.416.188 12.625l.076 3.605c.062 7.415-.263 12.3-5.264 18.082-4.09 3.451-8.857 3.144-13.977 3.094-3.908-.525-5.864-1.79-8.718-4.41-4.255-6.509-3.545-13.964-3.43-21.433l.027-3.374c.024-2.73.057-5.46.098-8.189z" fill="#E5E7E8"/><path d="M593 336h27v8h-18v6h11v8h-11v6h18v8h-27v-36z" fill="#E8EBEC"/><path d="M1010.547 336.027c2.059 1.202 3.803 2.25 5.453 3.973v3c-2.5 2.188-2.5 2.188-5 4l-1.563-.938c-3.203-1.396-5.949-1.875-9.437-2.062-2.305 1.332-2.305 1.332-4 3h-2c-.621 6.861-.621 6.861 1.938 13.063 3.992 2.525 7.41 2.826 12.062 2.937v-2c3.375.547 5.082 1.055 8 3-.37 2.412-.6 3.661-2.496 5.266-6.904 3.5-12.886 3.742-20.317 1.671-4.803-2.92-7.42-6.634-9.187-11.937-.66-7.391-.795-13.127 4-19 6.225-5.865 14.587-7.184 22.547-3.973z" fill="#E4E7E8"/><path d="M666 601l8.75-.125 2.737-.055 2.185-.015 2.222-.032c2.48.267 4.01.88 6.106 2.227 2.35 3.996 3.13 6.128 2.438 10.75-1.463 3.307-2.261 4.613-5.438 6.25h-3c2.016 3.733 3.968 7.103 6.75 10.313C691 633 691 633 691 635c-2.227-.125-2.227-.125-5-1-2.438-2.963-4.436-6.095-6.523-9.313-2.323-3.027-2.323-3.027-6.266-3.562L670 621v14h-4v-34z" fill="#B1B5B9"/><path d="M839 601l8.688-.25 2.71-.11c4.049-.057 6.103.048 9.622 2.25 3.037 3.236 3.38 5.611 3.332 10.067-.605 3.512-2.571 5.02-5.352 7.043h-4l2.188 3.027 2.812 3.91 1.445 1.999C864 633.886 864 633.886 864 635c-2.227.402-2.227.402-5 0-2.105-2.674-3.753-5.345-5.43-8.291-2.218-3.585-3.175-4.614-7.36-5.62L843 621v14h-4v-34z" fill="#B1B6BA"/><path d="M487 601l8.688-.313 2.71-.137c4.309-.075 6.08.05 9.618 2.755 2.51 3.41 3.058 5.462 2.984 9.695-1.625 3.375-1.625 3.375-4 6-2.75.875-2.75.875-5 1 2.016 3.733 3.968 7.103 6.75 10.313C511 633 511 633 511 635c-3.572-.256-4.77-.75-7.238-3.434l-2.075-3.004-2.113-2.996C498 623 498 623 498 621h-8v14h-3v-34z" fill="#B8BDC1"/><path d="M741 601h18v2l1.875.188C763 604 763 604 764.375 606c.898 4.31.182 7.905-1.375 12-2.827 2.919-5.617 3.95-9.7 4.098L745 622v13h-4v-34z" fill="#AEB3B6"/><path d="M880 336h26v8h-8l.016 2.554c.017 3.118.03 6.236.039 9.354.005 1.351.012 2.702.02 4.054.013 1.938.018 3.877.023 5.815l.016 3.54C898 372 898 372 897 373c-1.813.133-1.813.133-4 .125l-2.188.008C889 373 889 373 888 372a133.128 133.128 0 01-.098-6.223l.01-3.818.025-4.022A3768.67 3768.67 0 01888 344l-8 .001v-8z" fill="#E1E4E5"/><path d="M788 601h5c1.837 4.197 3.67 8.397 5.5 12.598.622 1.428 1.246 2.856 1.87 4.283.9 2.054 1.794 4.11 2.689 6.166l.846 1.926c1.288 2.973 2.452 5.844 3.095 9.027h-4l-3-7h-19l-3 7h-5a4314.58 4314.58 0 014.688-11.375l1.318-3.215c2.74-6.616 5.69-13.057 8.994-19.41z" fill="#AEB2B5"/><path d="M372 336c3.221-.723 5.809-.934 9 0 3.106 3.427 7 8.19 7 13h2l.688-2c3.689-8.433 3.689-8.433 6.312-11 3.106-.683 5.874-.49 9 0l-1 4h-2l-.777 2.164c-1.303 3.022-2.954 5.48-4.786 8.211-4.302 7.16-4.515 13.433-4.437 21.625h-8l.203-2.36c.167-12.04-5.583-20.08-12.117-29.8C372 338 372 338 372 336z" fill="#EAEDEE"/><path d="M799 336h26v8h-9v29h-9v-29h-8v-8z" fill="#E8EBEC"/><path d="M564 336h9v28h14v8h-23v-36z" fill="#ECEFF0"/><path d="M783 336h10v37h-9c-1-1-1-1-1.114-4.418 0-1.518.006-3.037.016-4.555l.005-2.417c.005-2.557.018-5.115.03-7.673.006-1.73.01-3.46.014-5.189.011-4.25.028-8.499.049-12.748z" fill="#DCDFE0"/><path d="M549 336h9c.025 5.109.043 10.217.055 15.326.005 1.74.012 3.478.02 5.218.013 2.494.018 4.989.023 7.483l.015 2.37c0 1.869-.051 3.736-.113 5.603l-1 1h-8v-37z" fill="#EAEDEE"/><path d="M560 271c3.17 3.002 4.786 5.614 5 10-.706 3.208-1.456 5.347-3.563 7.875-3.816 1.761-7.327 2.01-11.437 1.125-3.175-2.591-4.546-4.074-5.473-8.004-.294-3.971.334-5.82 2.785-8.933 4.435-3.404 7.342-3.376 12.688-2.063z" fill="#B2B7BA"/><path d="M590.188 602.75c2.773 2.22 4.81 4.323 6.812 7.25v2l-3 1-1.625-2.875c-2.768-3.642-3.915-4.368-8.375-5.125-4.96-.14-8.044.243-12 3.375-3.189 4.185-3.35 7.464-3 12.625 1.722 4.622 3.673 7.554 8 10 3.866.765 7.354.896 10.879-1.023 2.677-2.129 4.034-3.716 5.121-6.977l4 1c-.576 3.89-2.367 6.142-5 9-5.263 3.436-12.01 2.79-18 2-4.46-2.233-7.088-5.436-9-10-1.41-6.33-1.49-11.33 2-17 6.604-7.203 14.055-10.264 23.188-5.25z" fill="#B1B6B9"/><path d="M619 271c2.653 2.177 3.764 3.771 4.414 7.156.264 4.165-.086 6.326-2.351 9.906-4.117 2.605-7.317 2.985-12.063 1.938-3.063-2-3.063-2-5-5-.663-3.561-.323-6.807.625-10.313 3.926-4.818 8.668-5.378 14.375-3.687z" fill="#B3B8BB"/><path d="M705 601h22v3h-18v12h16v4h-16v12h18v3h-22v-34z" fill="#B6BBBE"/><path d="M492 343c3.77 2.996 5.79 5.803 6.625 10.563-.757 4.162-1.74 6.33-4.625 9.437-3.881 1.2-5.977 1.419-9.75-.125-3.474-2.895-4.99-5.343-5.75-9.813.71-4.343 2.397-5.96 5.5-9.062 4.791-1.597 4.791-1.597 8-1z" fill="#2E2E2E"/><path d="M660.563 342.313c3.647 1.028 6.206 2.666 8.437 5.687 1.13 3.088 1.458 5.74 1 9-1.663 3.125-3.792 5.396-7 7-2.813.375-2.813.375-6 0-4.067-3.434-5.798-5.482-6.5-10.75.025-2.708.253-3.92 1.887-6.11 2.598-2.367 4.764-3.912 8.176-4.827z" fill="#343434"/><path d="M610 601h4l1 14 2.887-3.063 3.8-3.937 1.897-2.023 1.865-1.914 1.698-1.778c2.394-1.66 4.003-1.524 6.853-1.285-4.408 5.29-9.076 10.188-14 15 1.473 5.224 4.813 8.125 8.625 11.75A529.6 529.6 0 01635 634v1c-2.829.232-4.46.366-6.853-1.253l-1.698-1.74-1.865-1.886-1.896-1.996-1.956-1.973C616 621.295 616 621.295 616 619h-2v16h-4v-34z" fill="#B1B5B9"/><path d="M525 601h4l.044 2.323c.075 3.476.171 6.951.268 10.427l.069 3.656.107 3.516.08 3.237c.48 3.154 1.23 4.566 3.432 6.841 2.131.63 2.131.63 4.438.5l2.308.031c3.135-.739 4.24-2.04 6.254-4.531.638-2.889.638-2.889.61-6.078l.097-3.516.043-3.656.09-3.703c.07-3.016.123-6.03.16-9.047h4c.117 4.02.187 8.04.25 12.063l.102 3.435c.078 6.742-.179 11.09-4.352 16.502-4.467 2.978-8.762 2.614-14 2-4.14-2.034-6.355-3.717-8-8-.227-2.84-.227-2.84-.195-6.078l.02-3.516.05-3.656.027-3.703c.024-3.016.057-6.031.098-9.047z" fill="#B0B4B8"/><path d="M545.125 232.938l2.285.013c1.863.012 3.727.03 5.59.049.344 4.055.486 7.952 0 12-4.426 5.04-11.668 5.593-18 7v-18c3.188-1.594 6.629-1.102 10.125-1.063z" fill="#2F2F2F"/><path d="M490 604c11.885-.43 11.885-.43 16 3l1 1c-.23 6.204-.23 6.204-2.875 8.938-4.763 1.619-9.11 1.243-14.125 1.062v-14z" fill="#2B2B2B"/><path d="M670 604c11.094-.61 11.094-.61 15.25 2.188 1.855 2.981 2.24 4.378 1.75 7.812h-2v2c-4.823 2.917-9.502 2.13-15 2v-14z" fill="#2F2F2F"/><path d="M843 604l5.75-.188 3.234-.105c3.362.327 4.686.88 7.016 3.293.563 3.438.563 3.438 0 7-1.813 2.438-1.813 2.438-5 4-3.736.32-7.236.181-11 0v-14z" fill="#323232"/><path d="M745 604c6.91-.374 10.659-.498 16 4-.605 6.413-.605 6.413-2.156 8.719-3.849 2.674-9.393 1.425-13.844 1.281v-14z" fill="#2F2F2F"/><path d="M448 601h26v3h-12v31h-3v-31h-11v-3z" fill="#BEC3C7"/><path d="M790 605c2.617 2.617 3.716 5.643 5.125 9l.84 1.945C798 620.737 798 620.737 798 623h-15a148.93 148.93 0 017-18z" fill="#303030"/><path d="M558 274c1.875 1.125 1.875 1.125 3 3 .546 3.668.479 5.326-1.688 8.375C557 287 557 287 554.5 287.563c-2.5-.563-2.5-.563-4.813-2.75-1.82-3.035-2.414-4.361-1.687-7.813 2.962-3.304 5.707-3.548 10-3z" fill="#323333"/><path d="M819 601h4v34h-4v-34z" fill="#B5B9BD"/><path d="M729.938 273.563c3.279.468 4.66 1.22 7.062 3.437-.599 6.345-.599 6.345-2.188 8.938-2.618 1.535-4.841 1.26-7.812 1.062v-2h-2c-1.324-6.257-1.324-6.257.063-9.438 1.937-1.562 1.937-1.562 4.875-2z" fill="#373737"/><path d="M755.938 273.5c3.062.5 3.062.5 5.437 2.188C763 278 763 278 763.563 280.5c-.563 2.5-.563 2.5-2.75 4.813-2.986 1.79-4.41 2.076-7.813 1.687v-2h-2c-1.324-6.257-1.324-6.257.063-9.438C753 274 753 274 755.938 273.5z" fill="#383839"/><path d="M618 275c2.314 3.47 2.51 4.918 2 9-2.084 2.315-3.444 2.903-6.5 3.438-3.398-.595-4.512-1.64-6.5-4.438-.5-3.063-.5-3.063 0-6 3.172-3.934 6.42-3.187 11-2z" fill="#343434"/><path d="M721 354h21v6h-21v-6z" fill="#EAEDEE"/><path d="M620 269v2l1.875.813C624 273 624 273 626 276c.258 2.695.089 5.285 0 8h-3l-.367-2.117-.508-2.758-.492-2.742c-.463-2.548-.463-2.548-2.633-4.383-4.845-1.118-8.648-1.631-13 1-1.124 2.948-1.627 5.875-2 9l-3-1c.718-5.025 2.28-8.436 6.063-11.875 4.395-1.683 8.366-.862 12.937-.125z" fill="#464647"/><path d="M348 344l4.313-.188 2.425-.105c2.262.293 2.262.293 4.055 1.555C360 347 360 347 360 351c-4.202 2.802-7.001 2.145-12 2v-9z" fill="#313131"/><path d="M921 344c7.385-.492 7.385-.492 10.5 2l1.5 2c-.938 2.5-.938 2.5-3 5-3.115.47-5.826.23-9 0v-9z" fill="#3F3F3F"/><path d="M522 358c1.437-.054 2.875-.093 4.313-.125l2.425-.07C531 358 531 358 534 360c-.875 3.875-.875 3.875-2 5a91.472 91.472 0 01-5.063.063l-2.785-.028L522 365v-7z" fill="#2C2C2C"/><path d="M559 268c3.822 2.387 6.562 4.685 8 9 .04 2.333.044 4.667 0 7l-3 1 .25-3.125c-.297-4.603-1.12-6.505-4.25-9.875-3.936-1.054-7.13-1.393-11 0v-3c3.706-1.235 6.098-1.455 10-1z" fill="#414242"/><path d="M737 269h13l-2.375 3.188c-2.03 2.829-3.516 5.485-4.625 8.812l-2-1-.438-3.438L740 273l-3-2v-2z" fill="#494A4A"/><path d="M315 348c2 1 2 1 2.852 3.285l.773 2.777c.26.92.52 1.839.79 2.786L320 359h-8c.672-3.806 1.727-7.352 3-11z" fill="#2F2F2F"/><path d="M522 344h8c.563 1.938.563 1.938 1 4-1 1-1 1-2.848 1.098L522 349v-5z" fill="#2B2B2B"/><path d="M623 276h3v8h-3v-8z" fill="#555657"/><path d="M548 270c0 3 0 3-2 6a75.316 75.316 0 00-1 5h-2c-.313-2.688-.313-2.688 0-6 2.5-2.875 2.5-2.875 5-5z" fill="#343434"/><path d="M557 268v2l-8 2v-3c2.928-.976 4.956-1.082 8-1z" fill="#3C3C3C"/></svg>